<?xml version="1.0" standalone="no"?>
<!DOCTYPE svg PUBLIC "-//W3C//DTD SVG 20010904//EN"
 "http://www.w3.org/TR/2001/REC-SVG-20010904/DTD/svg10.dtd">
<svg version="1.0" xmlns="http://www.w3.org/2000/svg"
 width="800.000000pt" height="800.000000pt" viewBox="0 0 800.000000 800.000000"
 preserveAspectRatio="xMidYMid meet">

<g transform="translate(0.000000,800.000000) scale(0.100000,-0.100000)"
fill="#000000" stroke="none">
<path d="M2805 7410 c-147 -44 -280 -147 -364 -282 -22 -37 -41 -70 -41 -72 0
-4 -115 -198 -140 -236 -6 -8 -13 -22 -17 -30 -7 -16 -37 -67 -212 -363 -61
-104 -111 -190 -111 -192 0 -2 -22 -40 -50 -84 -27 -44 -50 -85 -50 -89 0 -5
-14 -28 -30 -50 -17 -23 -30 -43 -30 -45 0 -2 -22 -42 -48 -88 -27 -46 -59
-106 -72 -133 l-25 -48 25 -19 c14 -10 30 -23 35 -27 6 -4 29 -18 53 -30 24
-12 49 -27 55 -33 7 -5 48 -31 91 -57 43 -26 91 -55 105 -64 14 -10 33 -21 41
-25 20 -9 117 -70 154 -95 23 -17 33 -19 48 -9 14 8 23 8 38 -1 25 -16 21 -32
-8 -36 -22 -3 -29 -16 -14 -25 4 -2 2 -2 -5 -1 -7 2 -15 -1 -18 -6 -4 -6 -1
-10 4 -10 6 0 11 -4 11 -9 0 -5 -7 -8 -16 -7 -9 0 -19 -5 -22 -13 -3 -8 0 -11
7 -7 6 4 11 2 11 -3 0 -6 -6 -11 -13 -11 -7 0 -20 -13 -30 -29 -19 -33 -22
-45 -7 -36 13 8 13 4 -5 -38 -15 -36 -35 -57 -35 -38 0 6 4 11 9 11 5 0 11 11
13 25 8 41 -5 29 -35 -32 -18 -35 -24 -59 -18 -61 6 -2 11 -11 11 -19 0 -13
-3 -13 -16 -2 -16 13 -20 10 -39 -26 -3 -6 -7 -5 -11 3 -7 14 -64 17 -64 2 0
-5 -7 -10 -15 -10 -8 0 -15 -4 -15 -8 0 -5 -15 -24 -32 -43 -18 -19 -42 -46
-54 -59 -32 -39 -98 -95 -107 -92 -4 1 -10 -6 -14 -15 -4 -10 -20 -29 -37 -43
-16 -14 -38 -33 -47 -42 -10 -9 -27 -22 -39 -28 -45 -24 -30 2 42 72 174 169
264 254 283 265 19 11 19 12 -8 18 -46 12 -69 -1 -158 -87 -47 -46 -105 -98
-127 -116 -23 -19 -42 -40 -42 -48 0 -8 -7 -14 -15 -14 -20 0 -145 -125 -145
-144 0 -8 -6 -16 -12 -19 -10 -3 -10 -9 -1 -25 10 -16 10 -22 0 -25 -7 -3 -3
-6 8 -6 12 -1 44 22 78 56 56 55 80 65 57 24 -6 -12 -15 -21 -20 -21 -6 0 -32
-22 -59 -49 -41 -41 -53 -48 -77 -43 -16 3 -35 11 -42 18 -10 11 -17 11 -32 2
-18 -12 -18 -13 -2 -22 9 -6 29 -9 45 -7 15 1 27 -2 27 -8 0 -6 -9 -11 -20
-11 -12 0 -34 -7 -50 -15 -27 -14 -58 -22 -87 -24 -7 -1 -13 -6 -13 -12 0 -13
-38 -49 -52 -49 -4 0 -8 -11 -8 -24 0 -24 -25 -43 -35 -26 -3 5 12 27 33 50
22 22 51 55 65 73 20 27 31 33 59 32 24 -2 26 -1 6 2 -16 2 -28 7 -28 10 0 10
89 93 99 93 6 0 8 6 5 13 -6 16 223 239 265 258 17 8 31 19 31 25 0 7 6 14 13
17 7 3 38 33 67 67 l55 63 -52 -5 c-48 -5 -74 -18 -84 -44 -5 -13 -84 -84 -93
-84 -4 0 -23 -12 -41 -26 -21 -16 -43 -24 -57 -22 l-23 4 25 11 c14 6 39 26
56 44 17 19 44 43 60 54 15 11 37 29 49 40 l20 20 -25 3 c-14 2 -37 -3 -51
-10 -40 -21 -109 -81 -109 -95 0 -7 -16 -19 -35 -27 -19 -8 -35 -20 -35 -25 0
-6 -18 -21 -40 -33 -22 -13 -40 -27 -40 -32 0 -11 -25 -31 -70 -55 -19 -11
-44 -33 -55 -50 -11 -17 -28 -31 -37 -31 -10 0 -18 -7 -18 -15 0 -9 -12 -18
-30 -22 -17 -3 -33 -10 -36 -14 -3 -5 -9 -7 -14 -4 -5 3 1 15 13 28 12 12 32
35 44 50 12 16 27 26 33 22 8 -5 8 -11 -1 -21 -9 -11 -8 -14 3 -14 22 0 29 11
17 26 -14 18 6 47 53 76 20 13 38 29 38 36 0 6 6 12 13 12 8 0 24 11 37 25 13
14 28 25 33 25 6 0 31 19 56 43 26 23 63 56 84 74 24 19 34 34 27 38 -13 8
-77 -2 -94 -15 -6 -5 -27 -22 -46 -37 -54 -44 -108 -83 -114 -83 -11 0 -145
-116 -164 -142 -14 -20 -32 -24 -32 -8 0 6 7 10 15 10 8 0 14 4 13 8 -4 10
121 132 135 132 5 0 17 8 26 18 9 9 32 29 51 43 92 69 94 84 11 69 -27 -5 -57
-3 -84 5 -36 12 13 14 363 17 351 3 407 1 417 -12 10 -13 12 -13 19 4 4 11 2
21 -6 26 -7 5 -129 7 -269 5 -141 -3 -473 -5 -739 -6 -265 -1 -482 -5 -482 -9
0 -4 6 -11 13 -14 6 -3 26 -15 42 -26 17 -10 41 -25 55 -33 82 -45 197 -114
208 -124 7 -7 17 -13 22 -13 5 0 11 -9 15 -19 8 -25 -27 -93 -158 -313 -310
-518 -327 -556 -327 -737 0 -132 19 -207 88 -351 63 -131 223 -331 329 -412
155 -119 265 -147 558 -141 83 1 193 2 246 3 l96 0 55 98 c75 132 89 156 132
237 21 39 42 74 47 80 12 12 11 41 -1 63 -14 25 -50 142 -50 163 0 10 -4 20
-9 23 -5 3 -11 20 -14 38 -45 271 -59 391 -61 528 -1 136 13 267 30 281 21 17
18 48 -3 43 -10 -2 -24 0 -32 5 -11 7 -10 14 7 37 11 16 29 38 41 48 21 19 21
19 21 -11 0 -16 -3 -32 -6 -35 -6 -6 -18 -273 -15 -343 1 -22 8 -62 15 -90 18
-67 26 -107 36 -185 20 -149 41 -239 62 -265 4 -5 8 -17 8 -27 0 -10 5 -18 10
-18 6 0 10 -9 10 -20 0 -11 5 -20 10 -20 6 0 10 -6 10 -14 0 -8 3 -16 8 -18 4
-1 18 -25 32 -53 14 -27 27 -52 30 -55 17 -17 61 -124 66 -163 6 -40 3 -53
-20 -87 -14 -22 -23 -40 -19 -40 9 0 33 -70 33 -95 0 -8 5 -15 10 -15 6 0 10
-7 10 -14 0 -8 15 -36 33 -62 17 -25 42 -64 55 -85 l23 -39 -188 -1 c-584 -2
-982 3 -1018 12 -50 13 -127 40 -140 50 -27 19 -88 49 -92 46 -5 -6 42 -107
100 -212 24 -44 62 -114 84 -155 63 -116 102 -188 154 -283 27 -48 49 -91 49
-96 0 -5 3 -11 8 -13 4 -1 21 -29 37 -61 66 -128 142 -270 223 -417 14 -25 32
-58 41 -75 166 -302 214 -359 375 -440 l98 -50 882 -3 c484 -1 891 0 903 3
l23 5 2 396 3 395 75 4 c41 2 122 8 178 12 57 5 105 6 107 2 2 -3 -7 -24 -21
-48 -13 -24 -24 -49 -24 -57 0 -7 14 -37 31 -66 18 -29 43 -73 57 -98 14 -25
34 -58 44 -75 10 -16 21 -36 25 -44 4 -8 38 -69 76 -135 39 -67 78 -134 87
-151 10 -16 31 -54 49 -83 17 -29 31 -55 31 -57 0 -3 18 -34 40 -70 22 -36 40
-67 40 -70 0 -3 18 -34 40 -70 22 -36 40 -69 40 -74 0 -5 6 -16 13 -23 6 -8
17 -23 23 -33 6 -11 23 -42 38 -70 61 -111 98 -165 112 -165 12 0 14 34 14
204 0 168 3 206 15 216 11 9 39 11 97 6 46 -3 247 -9 448 -12 399 -7 411 -6
540 54 168 78 317 263 413 512 57 146 74 226 76 349 3 127 -17 211 -76 320
-25 47 -49 91 -53 96 -4 6 -26 46 -50 90 -68 129 -141 253 -154 264 -8 7 -117
12 -279 13 l-267 3 73 92 c119 152 187 257 252 391 17 34 35 60 40 58 12 -3
54 -74 120 -201 26 -49 53 -97 59 -105 7 -8 30 -49 51 -90 21 -41 46 -86 55
-100 15 -23 37 -62 138 -250 19 -36 38 -69 42 -75 9 -12 63 -111 96 -175 34
-68 56 -166 56 -248 0 -51 3 -72 11 -69 9 3 229 355 254 406 3 7 35 61 71 120
36 58 75 123 86 143 12 20 59 100 106 178 47 77 94 155 104 173 11 17 53 88
94 157 237 395 236 394 236 595 -1 111 -4 138 -23 185 -13 30 -25 64 -28 75
-4 11 -9 22 -13 25 -6 5 -44 72 -118 210 -19 36 -52 95 -73 132 -22 36 -39 70
-39 73 0 4 -8 19 -19 33 -10 15 -37 61 -59 102 -22 41 -65 118 -96 170 -30 52
-65 115 -78 140 -13 25 -26 47 -29 50 -4 3 -9 15 -13 28 -4 12 -12 22 -17 22
-5 0 -9 9 -9 20 0 11 -4 20 -9 20 -5 0 -12 9 -16 20 -6 20 -65 128 -103 190
-12 19 -24 42 -28 50 -3 8 -10 22 -15 30 -5 8 -12 22 -16 30 -4 8 -9 17 -12
20 -3 3 -18 28 -33 55 -15 28 -35 51 -45 53 -10 1 -49 -18 -86 -43 -38 -25
-73 -45 -77 -45 -5 0 -10 -3 -12 -7 -1 -5 -23 -18 -48 -31 -75 -38 -135 -74
-138 -83 -2 -5 -11 -9 -20 -9 -8 0 -23 -6 -31 -13 -22 -19 -161 -97 -172 -97
-5 0 -9 -4 -9 -9 0 -5 -9 -12 -19 -16 -12 -4 -18 -12 -14 -20 4 -12 9 -12 32
4 38 27 132 80 164 92 15 6 27 15 27 20 0 5 9 9 20 9 11 0 20 4 20 9 0 5 33
25 73 46 39 20 74 40 77 44 7 8 36 26 90 53 25 13 47 25 50 28 7 7 42 29 59
37 8 4 17 1 19 -5 2 -7 9 -18 16 -25 7 -6 22 -32 34 -57 12 -25 36 -67 52 -95
16 -27 37 -66 47 -85 9 -19 34 -63 55 -98 21 -34 38 -68 38 -75 0 -7 5 -18 11
-24 14 -14 36 -52 45 -75 3 -10 10 -18 15 -18 5 0 9 -8 9 -19 0 -10 7 -32 15
-47 8 -16 14 -40 12 -54 -2 -14 -2 -19 0 -12 6 18 23 4 23 -19 0 -10 3 -19 8
-19 13 0 42 -61 42 -88 0 -21 2 -24 10 -12 8 12 10 11 10 -6 0 -12 7 -27 15
-34 20 -17 19 -30 -3 -30 -14 0 -19 -8 -20 -29 0 -21 3 -28 13 -25 19 8 27
-12 11 -25 -8 -7 -12 -20 -9 -30 3 -10 0 -22 -6 -25 -6 -4 -11 -16 -11 -27 0
-10 -4 -19 -10 -19 -6 0 -10 33 -10 80 0 73 -2 80 -20 80 -13 0 -20 7 -20 20
0 17 -4 19 -27 14 -38 -9 -50 -22 -29 -30 11 -4 22 -1 27 7 6 10 9 4 9 -18 0
-18 -4 -33 -10 -33 -6 0 -10 -27 -10 -60 l0 -60 -30 0 -30 0 -1 83 c-1 45 -1
87 0 94 2 13 -17 28 -25 20 -3 -3 -8 -20 -11 -39 -2 -18 -9 -37 -14 -42 -13
-14 -11 -76 2 -76 17 0 6 -82 -15 -111 l-16 -23 0 27 c0 20 -5 27 -20 27 -13
0 -20 7 -20 20 0 11 5 20 10 20 6 0 10 9 10 20 0 13 -7 20 -20 20 -17 0 -20
-7 -20 -40 0 -22 -4 -40 -10 -40 -5 0 -10 13 -10 30 0 21 -4 28 -14 24 -14 -5
-10 -54 5 -54 5 0 9 -9 9 -20 0 -17 -7 -20 -40 -20 -33 0 -40 3 -40 20 0 11 5
20 10 20 6 0 9 14 8 31 -3 33 -18 52 -18 21 0 -10 -9 -27 -19 -36 -12 -11 -17
-25 -13 -39 3 -12 1 -19 -3 -15 -9 9 -42 -32 -37 -45 1 -5 -2 -6 -8 -2 -19 12
-60 -53 -60 -95 0 -11 -4 -20 -9 -20 -13 0 -22 -43 -11 -54 6 -6 10 -24 10
-40 l0 -31 -22 32 c-28 39 -32 40 -46 8 -6 -14 -15 -25 -20 -25 -5 0 -7 -13
-4 -30 2 -17 0 -30 -6 -30 -6 0 -17 -18 -23 -41 -7 -22 -22 -48 -35 -58 -12
-9 -25 -32 -29 -50 -4 -18 -12 -34 -18 -37 -7 -2 -12 -18 -13 -34 -1 -35 -1
-35 -32 -45 -19 -5 -25 -2 -29 14 -4 15 -13 21 -35 21 -31 0 -31 0 -25 -47 6
-52 -10 -153 -24 -153 -5 0 -9 15 -9 34 0 19 -4 46 -10 60 -6 16 -6 27 0 31
14 9 12 47 -7 122 -14 58 -17 63 -25 43 -5 -13 -6 -37 -2 -53 4 -20 2 -32 -7
-38 -10 -6 -14 -32 -15 -81 -2 -118 -2 -118 -23 -118 -24 0 -31 26 -31 123 0
70 -2 77 -20 77 -17 0 -20 -7 -20 -40 0 -33 -3 -40 -20 -40 -17 0 -20 -7 -20
-43 0 -25 -7 -52 -16 -63 -15 -19 -16 -19 -9 1 16 44 17 57 11 100 l-7 45 -44
0 c-30 0 -45 -5 -49 -16 -4 -9 -10 -14 -14 -10 -7 8 -8 13 -11 74 -1 31 -21
47 -21 17 0 -36 -74 37 -82 81 -2 10 -10 26 -18 34 -8 8 -16 21 -18 29 -1 7
-9 20 -17 28 -8 8 -15 20 -15 28 0 7 -4 15 -8 17 -5 2 -24 32 -44 68 -44 83
-62 114 -68 120 -6 6 -32 52 -63 110 -78 150 -152 287 -161 303 -16 26 -40 30
-79 13 -59 -24 -58 -54 7 -199 31 -68 56 -129 56 -135 0 -6 6 -13 13 -16 9 -5
9 -7 -1 -12 -12 -6 -8 -10 73 -79 17 -14 36 -25 43 -25 6 0 12 -4 12 -10 0 -5
9 -10 19 -10 11 0 23 -4 26 -10 3 -5 17 -10 31 -10 13 0 24 -4 24 -10 0 -5
-13 -10 -29 -10 -17 0 -33 5 -36 10 -3 6 -15 10 -25 10 -10 0 -20 3 -22 8 -9
21 -77 60 -97 55 -11 -3 -21 -9 -21 -13 0 -4 -8 -10 -17 -13 -10 -3 -29 -12
-43 -20 -69 -40 -148 -48 -168 -17 l-12 20 -22 -20 c-44 -40 -133 -22 -185 38
-22 25 -33 32 -33 20 0 -9 -6 -18 -12 -21 -8 -3 3 -20 29 -44 22 -22 43 -49
46 -59 4 -17 6 -17 12 4 10 31 35 10 35 -29 0 -22 5 -29 20 -29 12 0 20 7 20
16 0 10 6 14 15 11 10 -4 23 10 41 43 28 52 44 63 44 32 0 -29 24 -54 55 -58
16 -1 40 -8 53 -15 25 -14 25 -11 5 -101 -3 -16 -9 -28 -14 -28 -5 0 -9 -11
-9 -25 0 -14 -4 -25 -10 -25 -5 0 -10 -6 -10 -12 0 -7 -11 -26 -24 -41 -14
-16 -26 -32 -28 -36 -2 -4 -17 -17 -35 -29 -18 -13 -40 -35 -49 -50 -8 -15
-31 -38 -50 -52 -19 -14 -51 -38 -71 -53 -20 -15 -52 -35 -70 -44 -18 -8 -33
-19 -33 -24 0 -5 -14 -9 -30 -9 -28 0 -33 6 -70 83 -27 58 -56 101 -93 138
-30 30 -57 67 -61 84 -4 16 -26 50 -49 76 -23 25 -55 62 -70 82 -26 35 -57 49
-57 27 0 -5 5 -10 11 -10 6 0 8 -7 5 -15 -3 -9 1 -18 9 -21 8 -4 13 -9 10 -14
-2 -4 5 -16 15 -28 11 -12 20 -28 20 -37 0 -9 14 -30 30 -47 17 -16 30 -39 31
-51 0 -22 5 -31 62 -115 15 -23 27 -48 27 -57 0 -18 17 -20 23 -2 4 13 101
-79 131 -126 11 -16 27 -27 40 -27 26 0 76 22 76 33 0 4 9 7 20 7 11 0 20 5
20 10 0 6 9 10 20 10 11 0 20 5 20 10 0 6 7 10 15 10 8 0 15 4 15 9 0 5 9 11
20 14 16 4 20 0 20 -18 0 -13 6 -25 13 -28 10 -4 10 -7 -1 -18 -6 -7 -12 -23
-12 -36 0 -13 -4 -23 -10 -23 -5 0 -10 -9 -10 -19 0 -11 -4 -23 -10 -26 -5 -3
-10 -15 -10 -26 0 -10 -4 -19 -10 -19 -5 0 -10 -7 -10 -15 0 -27 -67 -122
-143 -202 -151 -162 -177 -194 -177 -222 0 -15 -5 -32 -12 -39 -9 -9 -9 -12 0
-12 15 0 16 -35 0 -59 -9 -15 -7 -23 10 -42 17 -18 22 -35 22 -80 0 -55 -2
-59 -42 -93 -23 -20 -46 -36 -50 -36 -5 0 -29 -14 -53 -30 -24 -17 -46 -30
-50 -30 -16 0 -33 -28 -24 -37 6 -6 9 -23 7 -38 -3 -25 -18 -37 -78 -65 -8 -4
-21 -19 -28 -34 -8 -15 -21 -30 -30 -33 -10 -4 -19 -9 -22 -12 -3 -4 -34 -21
-70 -39 -63 -33 -70 -34 -214 -39 -137 -6 -150 -5 -163 12 -10 15 -13 66 -12
224 1 113 4 196 6 183 4 -20 10 -22 79 -22 41 0 74 4 74 9 0 5 37 13 83 17
l82 8 -77 9 c-43 5 -78 13 -78 17 0 4 59 10 131 14 90 5 136 12 146 21 19 20
56 30 61 16 6 -19 22 -12 22 9 0 11 7 20 15 20 8 0 15 5 15 10 0 8 27 -4 59
-27 2 -1 6 -22 8 -45 7 -63 15 -61 11 2 -3 49 -6 57 -34 75 -18 11 -37 29 -44
40 -11 17 -9 16 12 -3 23 -21 27 -22 41 -8 21 22 30 20 22 -4 -6 -18 -2 -20
33 -20 35 0 40 3 45 29 8 38 37 50 37 15 0 -13 -7 -27 -15 -30 -11 -5 -11 -9
-2 -18 9 -10 14 -8 24 12 7 13 13 32 13 42 0 10 5 20 11 22 8 3 8 10 -2 26
-11 18 -11 26 -1 42 6 11 12 28 12 38 0 11 20 41 45 68 24 27 48 54 52 59 36
45 148 171 155 173 4 2 8 10 8 18 0 8 4 14 8 14 10 0 72 117 72 136 0 8 5 14
10 14 6 0 10 11 10 25 0 14 5 25 10 25 6 0 10 14 10 30 0 23 -4 30 -20 30 -11
0 -20 -4 -20 -10 0 -5 -9 -10 -20 -10 -11 0 -20 -4 -20 -10 0 -5 -9 -10 -20
-10 -11 0 -20 -4 -20 -10 0 -5 -9 -10 -19 -10 -11 0 -21 -4 -23 -9 -5 -16 -88
-20 -88 -5 0 7 -25 39 -55 70 -30 32 -55 61 -55 66 0 4 -9 3 -21 -4 -17 -11
-22 -10 -30 5 -6 9 -14 17 -20 17 -5 0 -2 -12 7 -26 13 -19 24 -24 41 -21 17
3 23 0 23 -14 0 -11 4 -19 8 -19 23 0 127 -122 115 -134 -7 -7 -43 23 -43 36
0 10 -51 57 -63 58 -4 0 -3 -9 3 -19 5 -11 10 -31 10 -45 0 -24 -4 -26 -40
-26 -33 0 -40 -3 -40 -20 0 -13 -7 -20 -20 -20 -13 0 -20 -7 -20 -20 0 -18 -7
-20 -60 -20 -53 0 -60 -2 -60 -20 0 -18 -7 -20 -60 -20 -53 0 -60 -2 -60 -20
0 -18 -7 -20 -80 -20 -73 0 -80 -2 -80 -20 0 -17 -7 -20 -40 -20 -33 0 -40 -3
-40 -20 0 -17 -7 -20 -40 -20 -29 0 -40 -4 -40 -15 0 -11 -11 -15 -40 -15 -22
0 -40 -4 -40 -9 0 -6 -55 -8 -140 -4 -139 6 -140 6 -140 -15 0 -16 -6 -22 -21
-22 -18 0 -20 4 -15 33 3 17 1 46 -4 62 -10 30 -10 30 -5 -5 3 -19 1 -48 -4
-65 -9 -30 -13 -26 -25 20 -3 11 -4 -1 -3 -27 2 -48 -5 -62 -17 -32 -9 24 -7
106 3 100 5 -3 11 3 14 14 3 11 1 20 -4 20 -5 0 -9 -4 -9 -10 0 -20 -19 -9
-37 20 -13 22 -25 30 -45 30 -15 0 -28 -4 -28 -10 0 -5 12 -10 28 -10 20 0 30
-7 40 -27 14 -31 17 -117 3 -109 -18 12 -17 -55 1 -85 23 -37 17 -50 -9 -19
-10 12 -24 28 -30 35 -16 16 -17 35 -3 35 6 0 10 8 10 17 0 9 5 31 12 49 6 17
8 40 3 50 -5 13 -9 15 -12 7 -5 -14 -33 -18 -33 -5 0 4 5 13 11 19 7 7 -5 12
-42 15 -53 5 -56 7 -102 73 -17 24 -21 25 -133 25 -77 0 -124 4 -142 14 -15 7
-51 16 -80 19 -69 8 -93 24 -179 122 -54 62 -70 88 -66 103 5 19 -29 82 -49
90 -4 2 -8 10 -8 17 0 7 -6 15 -12 18 -21 6 -15 153 6 176 12 13 15 27 10 45
-4 18 -2 27 10 32 11 4 14 14 9 36 -8 42 16 107 57 151 19 21 39 46 44 55 10
20 42 52 51 52 3 0 15 8 26 19 18 16 72 35 83 28 8 -5 45 36 40 45 -10 16 43
73 91 98 27 14 53 37 62 54 14 28 14 30 -8 47 -12 9 -29 15 -36 12 -16 -6 -18
33 -2 43 6 3 9 19 7 35 -3 16 -2 29 2 29 12 0 50 91 50 120 0 26 4 30 28 31
39 2 57 -2 60 -12 5 -12 39 -11 47 1 3 6 -3 10 -14 10 -12 0 -21 5 -21 10 0
14 -94 12 -108 -2 -7 -7 -12 -23 -13 -37 0 -24 -1 -24 -10 -6 -7 16 -8 14 -4
-10 4 -19 -2 -43 -15 -67 -11 -21 -20 -48 -20 -61 0 -13 -5 -28 -11 -34 -19
-19 -6 -66 21 -75 20 -6 19 -7 -7 -3 -26 3 -33 1 -33 -12 0 -9 -7 -25 -17 -35
-15 -17 -15 -18 1 -18 10 0 14 5 10 12 -5 8 0 9 14 6 15 -4 22 -2 22 9 0 8 -4
11 -10 8 -5 -3 -10 -1 -10 5 0 10 36 5 49 -6 7 -6 -32 -33 -46 -34 -7 0 -13
-5 -13 -10 0 -7 -6 -7 -19 0 -29 15 -50 12 -29 -4 16 -12 16 -13 -3 -26 -10
-8 -19 -21 -20 -30 0 -10 -3 -9 -8 5 -5 12 -4 23 3 27 6 4 7 11 2 15 -5 4 -11
2 -13 -4 -9 -26 -33 -13 -33 17 0 31 -20 43 -21 13 0 -13 -3 -10 -10 7 -5 14
-17 31 -27 38 -15 11 -15 14 -2 22 11 7 18 3 27 -13 7 -12 12 -17 13 -10 0 17
-42 61 -62 65 -9 2 -16 -1 -16 -7 1 -5 9 -9 20 -7 10 2 18 -2 18 -8 0 -8 -13
-11 -35 -8 -30 3 -36 0 -46 -24 -8 -20 -9 -42 -3 -71 8 -39 12 -42 44 -45 25
-2 31 0 21 7 -21 14 25 19 69 8 43 -11 42 -10 34 -31 -9 -22 -21 -20 -48 9
-24 26 -39 24 -29 -3 4 -10 2 -13 -5 -8 -7 4 -37 0 -66 -8 -52 -15 -86 -13
-86 5 0 4 8 5 17 2 17 -7 17 -6 0 20 -9 14 -17 33 -17 42 0 8 -4 15 -10 15 -5
0 -10 -9 -10 -20 0 -11 -4 -20 -10 -20 -5 0 -10 -9 -10 -20 0 -13 -7 -20 -20
-20 -13 0 -20 -7 -20 -20 0 -13 -7 -20 -20 -20 -18 0 -20 7 -20 80 0 73 -2 80
-20 80 -17 0 -20 -7 -20 -40 0 -33 -3 -40 -20 -40 -17 0 -20 7 -20 40 0 33 -3
40 -20 40 -17 0 -20 7 -20 40 0 33 -3 40 -20 40 -13 0 -20 7 -20 20 0 11 7 20
15 20 8 0 15 9 15 20 0 11 -7 20 -15 20 -8 0 -15 9 -15 20 0 13 -7 20 -20 20
-13 0 -20 7 -20 20 0 13 -7 20 -20 20 -17 0 -20 7 -20 40 0 29 -4 40 -15 40
-11 0 -15 11 -15 36 0 27 -5 37 -20 41 -16 4 -20 14 -20 44 0 23 -5 39 -11 39
-9 0 -10 42 -7 156 5 144 7 157 29 180 28 30 83 32 119 4 14 -11 35 -20 47
-20 12 0 30 -8 40 -19 10 -10 33 -26 52 -36 37 -19 54 -31 79 -57 9 -10 22
-18 29 -18 7 0 13 -7 13 -15 0 -10 10 -15 28 -15 19 0 32 -8 44 -30 31 -55
197 -117 210 -79 2 6 16 12 31 12 15 0 27 3 27 7 0 4 23 10 50 14 28 4 50 11
50 16 0 6 8 10 18 10 11 0 27 9 37 20 14 16 20 17 27 8 6 -10 8 -9 8 2 0 8 16
33 35 55 20 22 49 59 66 83 16 23 34 42 39 42 4 0 11 14 15 31 4 17 13 33 21
36 8 3 14 14 14 24 0 10 7 19 15 19 9 0 18 7 22 16 4 12 8 13 14 3 5 -9 10 -5
14 14 4 15 13 27 21 27 8 0 14 5 14 10 0 6 7 10 15 10 16 0 31 60 21 85 -3 8
-1 15 4 15 6 0 11 -8 11 -17 1 -10 4 -4 8 12 4 17 3 32 -1 35 -4 3 4 18 18 34
14 15 23 30 20 33 -10 11 35 52 50 46 10 -4 12 0 8 11 -4 10 -1 16 8 16 18 0
61 44 52 53 -4 4 1 10 11 13 9 4 29 18 43 30 14 13 36 24 50 24 22 0 23 2 11
16 -12 15 -11 16 9 10 25 -8 23 -22 22 147 -1 90 2 107 15 107 8 0 15 7 15 15
0 8 5 15 10 15 6 0 10 7 10 15 0 8 4 15 9 15 5 0 11 10 14 21 4 13 11 19 19
16 10 -3 13 3 12 24 -1 16 2 29 6 29 5 0 15 7 23 15 9 8 36 16 64 17 l48 1
-35 16 -35 16 48 3 c26 2 47 7 47 11 0 16 53 22 82 10 15 -6 28 -14 28 -18 0
-4 12 -14 28 -23 20 -12 46 -15 97 -13 39 1 64 1 58 -2 -22 -8 -14 -23 12 -23
21 0 25 -5 25 -30 0 -20 -5 -30 -15 -30 -9 0 -12 6 -9 15 4 8 2 15 -4 15 -14
0 -8 -33 6 -38 7 -2 12 -12 12 -22 0 -11 8 -36 17 -55 14 -29 22 -36 40 -32
12 2 20 0 17 -4 -3 -5 -16 -9 -29 -9 -35 0 -55 -10 -54 -29 0 -10 2 -11 6 -3
2 6 22 12 43 12 21 0 42 5 45 10 3 6 17 10 31 10 13 0 24 -4 24 -10 0 -16 47
-11 54 6 8 21 8 21 -14 27 -29 8 -24 27 10 40 33 12 36 19 18 34 -23 18 -62
22 -93 9 -33 -14 -78 0 -70 21 2 7 0 15 -5 18 -14 9 -12 35 2 35 7 0 22 -12
34 -27 20 -25 22 -25 43 -11 14 10 18 18 12 23 -6 3 -11 12 -11 19 0 26 -65
84 -111 99 -25 9 -74 29 -110 45 -35 16 -74 32 -86 36 -13 4 -23 14 -23 22 0
22 -71 15 -88 -8 -14 -19 -70 -23 -107 -9 -15 6 -4 10 40 16 84 11 46 22 -77
23 -86 1 -97 -1 -101 -18 -3 -11 -2 -18 2 -17 3 1 7 -2 9 -8 3 -11 -54 -26
-63 -17 -3 3 3 15 13 26 19 21 132 210 132 220 0 3 38 68 84 144 46 76 93 153
104 172 54 96 163 282 195 335 58 95 179 209 245 229 13 4 21 13 19 19 -5 15
-135 22 -682 36 -231 6 -492 15 -580 20 -261 17 -509 13 -580 -9z m1520 -1230
c-3 -5 -12 -7 -20 -3 -21 7 -19 13 6 13 11 0 18 -4 14 -10z m-70 -28 c-3 -3
-11 0 -18 7 -9 10 -8 11 6 5 10 -3 15 -9 12 -12z m232 -48 c-3 -3 -12 -4 -19
-1 -8 3 -5 6 6 6 11 1 17 -2 13 -5z m-744 -137 c16 -17 39 -58 35 -62 -2 -1
-13 -7 -25 -14 -23 -12 -22 -41 2 -41 21 0 76 -31 82 -47 3 -8 1 -19 -6 -26
-16 -16 -14 -27 5 -27 27 0 9 -24 -24 -34 -18 -5 -51 -26 -74 -47 -23 -22 -47
-39 -55 -39 -7 0 -13 -9 -13 -20 0 -11 -7 -20 -15 -20 -24 0 -94 -40 -114 -66
-10 -13 -26 -24 -34 -24 -9 0 -19 -4 -22 -10 -6 -10 -55 -14 -55 -5 0 3 37 68
83 143 46 75 110 185 143 245 32 59 63 107 67 107 5 0 14 -6 20 -13z m847 -67
c0 -5 -5 -10 -11 -10 -5 0 -7 5 -4 10 3 6 8 10 11 10 2 0 4 -4 4 -10z m-750
-40 c0 -5 -2 -10 -4 -10 -3 0 -8 5 -11 10 -3 6 -1 10 4 10 6 0 11 -4 11 -10z
m-2160 -160 c0 -5 -4 -10 -9 -10 -6 0 -13 5 -16 10 -3 6 1 10 9 10 9 0 16 -4
16 -10z m2130 -20 c0 -5 -2 -10 -4 -10 -3 0 -8 5 -11 10 -3 6 -1 10 4 10 6 0
11 -4 11 -10z m-407 -300 c4 -15 14 -20 40 -20 42 0 56 -24 31 -51 -18 -20
-97 -26 -123 -10 -15 9 -8 41 17 79 18 27 28 28 35 2z m-1166 -350 c0 -59 -2
-68 -9 -45 -5 17 -6 51 -2 76 3 29 1 49 -5 54 -6 3 -11 11 -11 18 0 6 6 3 14
-8 8 -13 13 -48 13 -95z m-117 -1 c0 -6 -4 -7 -10 -4 -5 3 -10 11 -10 16 0 6
5 7 10 4 6 -3 10 -11 10 -16z m-1449 -32 c-1 -12 -15 -9 -19 4 -3 6 1 10 8 8
6 -3 11 -8 11 -12z m349 9 c0 -3 -4 -8 -10 -11 -5 -3 -10 -1 -10 4 0 6 5 11
10 11 6 0 10 -2 10 -4z m179 0 c-10 -9 -79 -14 -74 -5 4 5 22 9 42 9 20 0 34
-2 32 -4z m1008 -38 c-3 -7 -5 -2 -5 12 0 14 2 19 5 13 2 -7 2 -19 0 -25z
m-1239 2 c-7 -11 -27 -27 -45 -35 -31 -15 -44 -35 -23 -35 15 0 12 -30 -3 -36
-7 -2 -26 2 -41 10 -29 15 -30 11 17 51 44 38 71 54 78 49 5 -3 9 0 9 5 0 6 5
11 10 11 6 0 5 -8 -2 -20z m-167 -9 c-25 -25 -63 -38 -56 -19 6 14 41 35 63
37 7 0 4 -7 -7 -18z m298 -2 c-13 -12 -50 -39 -81 -60 -32 -22 -58 -44 -58
-49 0 -6 -7 -10 -15 -10 -8 0 -15 3 -15 7 0 12 80 80 117 100 18 10 33 21 33
25 0 5 10 8 22 8 21 0 21 0 -3 -21z m179 12 c-1 -5 -25 -25 -53 -43 -27 -19
-54 -43 -59 -54 -5 -11 -32 -31 -60 -45 -28 -14 -51 -32 -51 -40 -1 -8 -6 -13
-12 -12 -5 1 -16 -8 -22 -21 -16 -29 -67 -60 -76 -46 -3 6 3 23 14 39 12 16
21 34 21 41 0 7 6 10 14 7 7 -3 23 7 35 24 41 56 264 190 249 150z m799 -23
c-3 -8 -6 -5 -6 6 -1 11 2 17 5 13 3 -3 4 -12 1 -19z m-51 -42 c-9 -19 -29
-48 -44 -64 -15 -15 -34 -37 -43 -48 -9 -10 -32 -30 -50 -44 -18 -14 -40 -32
-49 -41 -8 -9 -45 -48 -82 -87 -38 -38 -68 -72 -68 -76 0 -10 -148 -156 -159
-156 -5 0 -12 -13 -16 -30 -8 -36 -23 -47 -32 -24 -4 10 0 22 10 29 10 7 17
15 17 18 0 3 12 18 28 34 15 16 36 40 47 55 66 86 285 315 332 347 11 7 42 39
69 71 27 31 51 56 53 54 2 -2 -4 -19 -13 -38z m221 -88 c-2 -13 -4 -3 -4 22 0
25 2 35 4 23 2 -13 2 -33 0 -45z m-230 -25 c-3 -10 -5 -4 -5 12 0 17 2 24 5
18 2 -7 2 -21 0 -30z m-559 -31 c-13 -14 -33 -35 -46 -45 -13 -11 -48 -43 -79
-73 -30 -30 -64 -54 -74 -54 -15 0 -6 12 33 47 29 25 70 64 90 85 21 21 42 38
48 38 5 0 10 6 10 14 0 15 20 26 33 19 5 -3 -2 -17 -15 -31z m530 10 c2 -12
-1 -22 -7 -22 -6 0 -11 -6 -11 -14 0 -21 -26 -67 -33 -59 -4 3 -7 -1 -7 -10 0
-9 -4 -17 -10 -17 -5 0 -17 -16 -26 -35 -9 -20 -30 -45 -46 -56 -43 -31 -138
-131 -138 -147 -1 -12 -38 -52 -49 -52 -17 0 -14 9 17 49 16 20 32 44 35 54 4
9 13 17 22 17 8 0 15 4 15 9 0 4 23 32 50 61 28 29 50 56 50 59 0 12 78 91 90
91 7 0 9 7 6 16 -8 21 15 85 29 81 5 -2 11 -13 13 -25z m-1055 -87 c-3 -9 -8
-14 -10 -11 -3 3 -2 9 2 15 9 16 15 13 8 -4z m1037 -29 c0 -11 -19 -15 -25 -6
-3 5 1 10 9 10 9 0 16 -2 16 -4z m-955 -16 c-3 -5 -11 -10 -16 -10 -6 0 -7 5
-4 10 3 6 11 10 16 10 6 0 7 -4 4 -10z m-40 -40 c-20 -22 -31 -20 -22 5 4 8
14 15 23 15 16 0 16 -2 -1 -20z m246 -59 c-12 -10 -21 -20 -21 -22 0 -2 -33
-38 -73 -81 -40 -42 -84 -91 -98 -108 -47 -62 -68 -85 -69 -73 0 6 5 15 10 18
6 3 28 33 50 66 49 71 213 244 218 229 2 -6 -5 -19 -17 -29z m-120 19 c35 0
20 -20 -20 -26 -28 -5 -38 -10 -34 -20 4 -11 9 -12 18 -4 9 7 15 8 19 1 7 -11
-24 -31 -46 -31 -7 0 -28 -9 -46 -20 -27 -17 -31 -24 -22 -35 7 -9 8 -15 0
-20 -5 -3 -10 -1 -10 4 0 6 -4 11 -10 11 -5 0 -10 -6 -10 -14 0 -8 -7 -16 -15
-20 -8 -3 -15 -12 -15 -21 0 -8 -4 -15 -10 -15 -12 0 -14 27 -2 32 4 2 23 23
43 48 20 25 45 55 55 67 11 12 28 33 39 47 11 14 26 23 33 21 8 -3 22 -5 33
-5z m-195 -47 c-15 -15 -26 -20 -26 -13 0 19 44 64 48 50 2 -6 -8 -22 -22 -37z
m124 -73 c0 -10 -31 -22 -38 -16 -2 3 -2 12 1 20 6 15 37 12 37 -4z m351 -61
c-13 -14 -21 -18 -21 -9 0 13 32 42 38 35 2 -2 -5 -14 -17 -26z m-634 -51 c-3
-7 -5 -2 -5 12 0 14 2 19 5 13 2 -7 2 -19 0 -25z m6430 0 c-3 -8 -6 -5 -6 6
-1 11 2 17 5 13 3 -3 4 -12 1 -19z m-5865 -27 c-15 -16 -30 -27 -34 -25 -9 6
45 62 54 57 4 -2 -5 -17 -20 -32z m158 29 c0 -5 -5 -10 -11 -10 -5 0 -7 5 -4
10 3 6 8 10 11 10 2 0 4 -4 4 -10z m-748 -32 c-7 -7 -12 -8 -12 -2 0 14 12 26
19 19 2 -3 -1 -11 -7 -17z m6528 -97 c0 -26 -40 37 -46 71 -5 32 -4 32 20 -12
14 -25 25 -51 26 -59z m-6100 59 c-8 -5 -19 -10 -25 -10 -5 0 -3 5 5 10 8 5
20 10 25 10 6 0 3 -5 -5 -10z m1686 -1 c4 -7 -1 -16 -10 -21 -9 -5 -16 -21
-17 -36 0 -15 -3 -21 -6 -14 -7 18 6 82 17 82 5 0 12 -5 16 -11z m-2016 -23
c0 -3 -4 -8 -10 -11 -5 -3 -10 -1 -10 4 0 6 5 11 10 11 6 0 10 -2 10 -4z m288
-23 c-4 -22 -27 -42 -48 -42 -11 0 -9 5 8 18 12 11 22 24 22 30 0 6 5 11 10
11 6 0 10 -8 8 -17z m-346 -75 c-7 -7 -12 -8 -12 -2 0 14 12 26 19 19 2 -3 -1
-11 -7 -17z m6348 2 c0 -11 -4 -20 -10 -20 -5 0 -10 9 -10 20 0 11 5 20 10 20
6 0 10 -9 10 -20z m-63 -52 c-3 -7 -5 -2 -5 12 0 14 2 19 5 13 2 -7 2 -19 0
-25z m-4162 12 c-3 -5 -23 -9 -43 -9 l-37 2 40 7 c22 4 41 8 43 9 2 0 0 -3 -3
-9z m75 -15 c0 -8 -4 -15 -10 -15 -5 0 -7 7 -4 15 4 8 8 15 10 15 2 0 4 -7 4
-15z m-160 -9 c0 -8 5 -16 12 -18 8 -3 8 -9 0 -24 -11 -18 -11 -18 -12 4 0 13
-6 22 -15 22 -8 0 -15 7 -15 15 0 8 7 15 15 15 8 0 15 -6 15 -14z m3876 -33
c-11 -11 -19 6 -11 24 8 17 8 17 12 0 3 -10 2 -21 -1 -24z m244 17 c0 -11 -7
-20 -15 -20 -8 0 -15 9 -15 20 0 11 7 20 15 20 8 0 15 -9 15 -20z m-4046 1 c6
-10 -31 -47 -40 -39 -6 7 17 48 28 48 4 0 9 -4 12 -9z m-128 -89 c-9 -8 -26
10 -26 26 1 15 2 15 15 -2 8 -11 13 -21 11 -24z m3919 -56 c6 -66 4 -89 -9
-112 -15 -28 -15 -24 -16 84 0 61 4 112 9 112 5 0 12 -38 16 -84z m128 -83
c-7 -2 -19 -2 -25 0 -7 3 -2 5 12 5 14 0 19 -2 13 -5z m-4313 -60 c0 -20 -18
-16 -30 6 -16 31 -12 42 10 24 11 -10 20 -23 20 -30z m177 -45 c-3 -7 -5 -2
-5 12 0 14 2 19 5 13 2 -7 2 -19 0 -25z m3903 12 c0 -11 -4 -20 -8 -20 -4 0
-8 9 -8 20 0 11 4 20 8 20 4 0 8 -9 8 -20z m-4046 -8 c7 -12 -33 -44 -45 -36
-6 4 -3 13 8 24 20 21 29 24 37 12z m2033 -174 c-3 -8 -6 -5 -6 6 -1 11 2 17
5 13 3 -3 4 -12 1 -19z m581 -179 c-2 -6 -8 -10 -13 -10 -5 0 -11 4 -13 10 -2
6 4 11 13 11 9 0 15 -5 13 -11z m-183 -169 c3 -6 -1 -7 -10 -4 -8 4 -23 0 -33
-7 -15 -13 -16 -12 -3 4 15 19 36 22 46 7z m-85 -30 c-18 -12 -60 -13 -60 -2
0 4 17 8 37 9 26 1 33 -1 23 -7z m90 -4 c0 -7 -6 -19 -14 -25 -11 -9 -12 -6
-8 14 5 26 22 35 22 11z m-83 -52 c-3 -3 -12 -4 -19 -1 -8 3 -5 6 6 6 11 1 17
-2 13 -5z m40 -46 c-3 -8 -6 -5 -6 6 -1 11 2 17 5 13 3 -3 4 -12 1 -19z
m-1507 -238 c0 -5 -5 -10 -11 -10 -5 0 -7 5 -4 10 3 6 8 10 11 10 2 0 4 -4 4
-10z m127 -32 c-3 -8 -6 -5 -6 6 -1 11 2 17 5 13 3 -3 4 -12 1 -19z m923 -38
c0 -4 -16 -21 -35 -38 -34 -31 -51 -33 -82 -9 -22 16 23 80 63 89 17 5 54 -24
54 -42z m155 -60 c3 -5 1 -10 -4 -10 -6 0 -11 5 -11 10 0 6 2 10 4 10 3 0 8
-4 11 -10z m-2365 -55 c0 -14 -4 -25 -10 -25 -5 0 -10 4 -10 9 0 5 -3 16 -6
25 -4 11 -1 16 10 16 10 0 16 -9 16 -25z m237 3 c-3 -8 -6 -5 -6 6 -1 11 2 17
5 13 3 -3 4 -12 1 -19z m241 11 c-2 -6 -8 -10 -13 -10 -5 0 -11 4 -13 10 -2 6
4 11 13 11 9 0 15 -5 13 -11z m132 1 c13 -8 12 -10 -2 -10 -10 0 -21 0 -25 -1
-4 0 -9 4 -11 10 -5 14 18 14 38 1z m80 0 c0 -5 -2 -10 -4 -10 -3 0 -8 5 -11
10 -3 6 -1 10 4 10 6 0 11 -4 11 -10z m380 2 c0 -13 -12 -22 -22 -16 -10 6 -1
24 13 24 5 0 9 -4 9 -8z m1282 -27 c-2 -19 -6 -35 -8 -35 -2 0 -4 16 -4 35 0
19 4 35 8 35 4 0 6 -16 4 -35z m-2000 -22 c-3 -16 -7 -22 -10 -15 -4 13 4 42
11 42 2 0 2 -12 -1 -27z m1041 7 c-3 -11 -7 -20 -9 -20 -2 0 -4 9 -4 20 0 11
4 20 9 20 5 0 7 -9 4 -20z m-788 -18 c0 -18 -20 -15 -23 4 -3 10 1 15 10 12 7
-3 13 -10 13 -16z m907 -49 c1 -16 -4 -38 -10 -49 -9 -16 -11 -8 -12 41 0 42
3 56 11 48 5 -5 11 -24 11 -40z m528 37 c0 -5 7 -10 15 -10 8 0 15 -9 15 -20
0 -15 -7 -20 -26 -20 -32 0 -57 29 -42 47 12 15 38 17 38 3z m-1675 -91 c4
-18 1 -32 -11 -44 -21 -20 -30 -6 -15 23 5 10 7 30 4 43 -4 17 -2 21 5 14 6
-5 13 -22 17 -36z m1665 10 c0 -14 -17 -10 -23 5 -4 10 -1 13 9 9 7 -3 14 -9
14 -14z m45 -6 c0 -24 -4 -28 -33 -29 -18 -1 -35 3 -39 9 -3 5 -1 7 5 3 6 -3
23 5 38 19 15 14 28 25 28 25 1 0 2 -12 1 -27z m675 -17 c0 -26 -22 -76 -32
-76 -5 0 -8 -4 -8 -10 0 -16 -90 -157 -116 -181 -26 -24 -92 -51 -106 -43 -15
10 -8 61 12 87 11 14 20 39 20 55 0 48 9 61 57 83 24 11 67 44 96 74 39 41 54
51 64 43 7 -6 13 -20 13 -32z m728 17 c2 -7 -3 -13 -10 -13 -8 0 -25 -11 -38
-25 -13 -14 -29 -25 -35 -25 -6 0 -17 -10 -24 -23 -7 -12 -32 -36 -56 -52 -25
-17 -45 -33 -45 -36 0 -3 -32 -38 -70 -78 -39 -41 -78 -86 -87 -102 -10 -16
-25 -32 -35 -35 -10 -3 -18 -12 -18 -20 0 -8 -4 -14 -10 -14 -5 0 -10 -6 -10
-14 0 -8 -20 -34 -45 -59 -25 -26 -45 -53 -45 -61 0 -9 -9 -21 -20 -28 -11 -7
-20 -21 -20 -31 0 -17 -45 -67 -60 -67 -4 0 -13 -21 -19 -46 -7 -25 -18 -56
-25 -67 -16 -27 -29 -104 -20 -119 4 -6 8 -35 10 -65 2 -47 0 -53 -18 -53 -19
0 -20 4 -14 80 5 66 4 80 -8 80 -8 0 -18 -9 -21 -20 -3 -11 -10 -20 -14 -20
-4 0 -6 -15 -4 -32 2 -18 0 -27 -3 -20 -7 15 -24 6 -24 -14 0 -8 7 -14 15 -14
22 0 18 -33 -5 -53 -12 -10 -20 -28 -19 -44 1 -17 3 -21 6 -10 2 9 8 17 13 17
15 0 20 -46 20 -197 l0 -153 -40 0 -40 0 0 69 c0 38 -3 83 -6 100 -6 28 -4 31
20 31 24 0 26 3 26 40 0 39 -1 40 -34 40 -31 0 -34 -3 -40 -34 -4 -19 -12 -37
-19 -39 -7 -3 -2 -6 11 -6 25 -1 33 -41 7 -41 -8 0 -15 -9 -15 -20 0 -11 5
-20 12 -20 8 0 9 -32 5 -120 -7 -115 -6 -120 13 -120 17 0 20 7 20 40 0 33 3
40 20 40 16 0 20 -7 20 -35 0 -51 29 -48 32 3 l1 37 4 -33 c4 -28 7 -31 19
-21 8 6 14 20 14 30 0 14 7 19 25 19 33 0 33 -29 0 -60 -16 -15 -31 -21 -45
-17 -13 3 -23 0 -27 -9 -3 -8 -18 -14 -33 -14 -38 0 -44 -22 -41 -131 2 -73
-1 -88 -15 -93 -13 -5 -15 -2 -10 18 7 28 -2 58 -15 50 -5 -3 -7 -9 -4 -14 3
-5 1 -19 -5 -30 -7 -13 -7 -20 -1 -20 6 0 15 -15 20 -32 7 -26 9 -28 10 -10 2
47 17 19 17 -32 l1 -55 -20 37 c-11 20 -27 51 -37 69 -10 18 -20 29 -24 26 -5
-5 -8 21 -5 44 0 3 -7 11 -16 16 -14 8 -15 11 -4 18 11 7 11 9 -2 9 -10 0 -26
17 -37 37 -33 65 -64 117 -83 145 -11 14 -19 31 -19 37 0 6 -4 11 -9 11 -4 0
-25 33 -46 72 -44 88 -54 104 -81 143 -12 17 -40 66 -64 109 -23 44 -60 108
-81 143 -21 35 -39 66 -39 68 0 3 -12 24 -27 48 -43 66 -63 106 -63 122 0 26
48 112 66 119 9 4 62 11 118 17 194 19 358 65 536 152 144 69 190 97 190 115
0 6 8 12 18 12 11 0 27 9 37 20 10 11 21 17 26 15 4 -3 11 1 16 8 4 8 22 22
38 32 47 30 193 152 270 227 l70 69 59 -3 c36 -2 61 -8 64 -15z m-1968 -59 c0
-8 -4 -12 -10 -9 -5 3 -10 10 -10 16 0 5 5 9 10 9 6 0 10 -7 10 -16z m-1513
-46 c-3 -7 -5 -2 -5 12 0 14 2 19 5 13 2 -7 2 -19 0 -25z m3173 28 c0 -3 -4
-8 -10 -11 -5 -3 -10 -1 -10 4 0 6 5 11 10 11 6 0 10 -2 10 -4z m-35 -36 c-3
-5 -14 -10 -23 -9 -14 0 -13 2 3 9 27 11 27 11 20 0z m-2905 -10 c0 -5 -4 -10
-10 -10 -5 0 -10 5 -10 10 0 6 5 10 10 10 6 0 10 -4 10 -10z m2797 -76 c-3 -3
-12 -4 -19 -1 -8 3 -5 6 6 6 11 1 17 -2 13 -5z m-1499 -105 c-6 -38 -23 -24
-26 21 -3 44 -3 44 13 22 9 -12 15 -31 13 -43z m1367 17 c-34 -23 -95 -56
-105 -56 -6 0 -10 5 -10 10 0 6 9 10 19 10 11 0 21 3 23 8 3 8 68 40 83 41 5
1 1 -5 -10 -13z m-140 -82 c-31 -16 -35 -17 -35 -6 0 10 43 29 53 24 5 -2 -4
-10 -18 -18z m-45 -24 c0 -5 -7 -10 -15 -10 -8 0 -15 5 -15 10 0 6 7 10 15 10
8 0 15 -4 15 -10z m-55 -20 c3 -5 1 -10 -4 -10 -6 0 -11 5 -11 10 0 6 2 10 4
10 3 0 8 -4 11 -10z m-83 -42 c-9 -9 -15 -9 -24 0 -9 9 -7 12 12 12 19 0 21
-3 12 -12z m-42 -12 c0 -2 -7 -7 -16 -10 -8 -3 -12 -2 -9 4 6 10 25 14 25 6z
m-1007 -127 c-4 -4 -7 15 -7 44 3 79 7 89 11 23 2 -32 0 -63 -4 -67z m950 104
c-7 -2 -21 -2 -30 0 -10 3 -4 5 12 5 17 0 24 -2 18 -5z m-60 -20 c-7 -2 -21
-2 -30 0 -10 3 -4 5 12 5 17 0 24 -2 18 -5z m-65 -20 c-10 -2 -26 -2 -35 0
-10 3 -2 5 17 5 19 0 27 -2 18 -5z m-69 -17 c-9 -10 -59 -14 -54 -5 4 5 18 9
32 9 15 0 24 -2 22 -4z m-126 -23 c-7 -2 -19 -2 -25 0 -7 3 -2 5 12 5 14 0 19
-2 13 -5z m-480 -20 c-7 -2 -21 -2 -30 0 -10 3 -4 5 12 5 17 0 24 -2 18 -5z
m365 0 c-16 -2 -40 -2 -55 0 -16 2 -3 4 27 4 30 0 43 -2 28 -4z m-631 -55 c-3
-8 -6 -5 -6 6 -1 11 2 17 5 13 3 -3 4 -12 1 -19z m123 -69 l-4 -64 -6 65 c-5
66 -2 90 9 72 3 -5 4 -39 1 -73z m1380 -24 c-7 -8 -21 -15 -32 -15 -17 0 -18
3 -8 15 7 8 21 15 32 15 17 0 18 -3 8 -15z m-1603 -132 c-3 -10 -5 -4 -5 12 0
17 2 24 5 18 2 -7 2 -21 0 -30z m230 -65 c-3 -8 -6 -5 -6 6 -1 11 2 17 5 13 3
-3 4 -12 1 -19z m1388 -627 c12 -5 -29 -8 -95 -8 -78 1 -101 3 -70 7 64 10
142 10 165 1z m88 -8 c-7 -2 -19 -2 -25 0 -7 3 -2 5 12 5 14 0 19 -2 13 -5z"/>
<path d="M4390 2783 c-35 -14 -54 -53 -25 -53 19 0 55 31 55 47 0 14 -6 15
-30 6z"/>
<path d="M4290 2500 c0 -5 5 -10 10 -10 6 0 10 5 10 10 0 6 -4 10 -10 10 -5 0
-10 -4 -10 -10z"/>
<path d="M4953 2495 c-9 -10 -9 -16 -2 -20 14 -9 22 0 17 18 -2 13 -5 13 -15
2z"/>
<path d="M4909 2443 c-13 -16 -12 -17 4 -4 9 7 17 15 17 17 0 8 -8 3 -21 -13z"/>
<path d="M4790 2359 c0 -5 5 -7 10 -4 6 3 10 8 10 11 0 2 -4 4 -10 4 -5 0 -10
-5 -10 -11z"/>
<path d="M4521 1244 c0 -11 3 -14 6 -6 3 7 2 16 -1 19 -3 4 -6 -2 -5 -13z"/>
<path d="M4740 1180 c0 -11 5 -20 10 -20 6 0 10 9 10 20 0 11 -4 20 -10 20 -5
0 -10 -9 -10 -20z"/>
<path d="M4827 929 c-9 -33 -9 -49 2 -49 12 0 19 32 11 55 -6 17 -7 17 -13 -6z"/>
<path d="M4818 856 c-10 -7 -18 -20 -18 -28 0 -8 -5 -19 -11 -25 -7 -7 -6 -12
5 -16 12 -5 16 0 16 23 0 35 20 41 21 8 1 -19 2 -18 10 7 10 35 1 48 -23 31z"/>
<path d="M5050 7389 c-43 -9 -131 -31 -195 -49 -144 -41 -316 -165 -367 -265
-12 -22 -33 -58 -48 -80 -15 -22 -41 -66 -59 -99 -17 -32 -63 -111 -101 -176
-81 -137 -82 -115 10 -276 33 -59 60 -108 60 -110 0 -3 11 -22 25 -44 l25 -40
-22 -1 c-18 -1 -17 -3 7 -8 17 -4 37 -4 46 0 25 12 230 -30 253 -52 6 -5 18
-9 28 -9 9 0 42 -11 72 -25 30 -14 58 -25 63 -25 10 0 56 -42 75 -68 7 -10 29
-29 48 -42 19 -13 37 -27 40 -30 3 -4 32 -24 65 -44 33 -21 70 -47 82 -59 29
-26 42 -16 15 11 -11 11 -18 23 -14 26 3 3 -5 6 -18 6 -17 0 -21 3 -14 10 7 7
20 6 40 -5 16 -8 44 -18 63 -21 21 -4 35 -14 38 -25 4 -13 15 -20 34 -20 16
-1 34 -2 40 -3 20 -2 89 -71 89 -89 0 -9 6 -17 14 -17 7 0 16 -9 19 -20 3 -11
9 -20 14 -19 15 4 43 -13 43 -26 0 -8 9 -16 19 -20 18 -5 31 -24 37 -53 3 -14
69 -95 105 -129 29 -26 79 -47 79 -33 0 6 -7 10 -16 10 -23 0 -76 55 -78 81
-1 16 -9 25 -26 30 -21 6 -22 7 -5 8 12 1 26 -4 33 -11 7 -7 12 -8 12 -4 0 5
7 3 16 -4 8 -8 37 -13 65 -12 36 1 49 -3 49 -14 0 -13 -14 -18 -47 -17 -6 0
-9 -6 -6 -13 4 -11 9 -12 19 -3 8 7 17 9 21 5 3 -3 2 -6 -4 -6 -17 0 -23 -41
-7 -47 8 -3 14 -11 14 -18 0 -8 8 -11 20 -8 19 5 19 7 6 22 -10 11 -12 21 -6
31 7 11 12 9 29 -11 12 -13 24 -34 27 -46 3 -13 17 -24 33 -28 24 -5 27 -11
30 -46 1 -23 -2 -38 -7 -35 -4 2 -13 -8 -19 -25 -8 -21 -8 -27 0 -22 6 3 2 -5
-9 -20 l-19 -26 -17 22 c-10 12 -18 28 -18 35 0 6 -5 12 -11 12 -6 0 -25 15
-42 33 -48 47 -78 69 -85 61 -4 -4 -1 -9 5 -11 8 -3 11 -14 7 -27 -3 -15 2
-28 17 -41 l22 -20 -8 24 c-9 29 13 25 29 -5 27 -47 48 -74 56 -69 5 3 17 -6
26 -20 9 -14 19 -25 23 -25 7 0 69 99 117 185 15 28 36 64 46 80 10 17 21 37
25 45 4 8 24 43 45 78 21 34 38 65 38 67 0 3 11 22 23 43 24 37 69 116 103
182 11 19 21 37 24 40 6 6 23 36 52 91 11 21 24 42 29 45 5 3 9 12 9 21 0 9 6
24 14 32 8 9 43 68 79 131 35 63 85 152 111 196 25 45 46 85 46 89 0 4 -12 -1
-27 -11 -16 -10 -53 -31 -83 -48 -81 -44 -93 -50 -120 -67 -150 -93 -166 -98
-185 -58 -39 81 -111 215 -117 217 -5 2 -8 10 -8 18 0 8 -4 22 -9 32 -5 9 -18
35 -29 57 -11 22 -30 58 -42 80 -12 22 -49 90 -81 152 -32 62 -69 129 -81 150
-13 21 -30 51 -38 66 -8 16 -42 57 -77 92 -127 128 -313 196 -536 194 -67 -1
-142 -5 -167 -10z m804 -415 c3 -8 2 -12 -4 -9 -6 3 -10 10 -10 16 0 14 7 11
14 -7z m-616 -368 c12 -12 -6 -15 -61 -9 -31 3 -57 10 -57 16 0 10 107 3 118
-7z m-161 -42 c-3 -3 -12 -4 -19 -1 -8 3 -5 6 6 6 11 1 17 -2 13 -5z m606 -64
c3 -11 1 -20 -4 -20 -5 0 -9 9 -9 20 0 11 2 20 4 20 2 0 6 -9 9 -20z m227 -5
c10 -13 9 -15 -8 -15 -15 0 -20 5 -16 15 4 8 7 15 9 15 1 0 8 -7 15 -15z
m-170 -30 c7 -8 15 -13 19 -11 4 3 13 0 21 -5 13 -8 12 -12 -4 -24 -19 -14
-41 -11 -31 5 12 20 -25 16 -51 -6 -16 -13 -38 -23 -49 -24 -12 0 -26 -5 -33
-12 -7 -7 -12 -9 -12 -4 0 10 26 36 37 36 4 0 24 14 43 30 41 34 43 35 60 15z
m212 4 c2 -7 35 -24 73 -39 84 -33 95 -50 28 -43 -55 6 -93 26 -101 55 -3 12
-10 17 -19 14 -8 -3 -27 -3 -41 1 l-27 7 30 7 c46 10 53 10 57 -2z m620 -38
c-5 -3 -12 -16 -16 -28 -4 -13 -11 -23 -16 -23 -4 0 -10 -10 -14 -22 -5 -20
-8 -21 -17 -8 -8 12 -9 9 -5 -12 3 -15 2 -30 -4 -33 -5 -3 -10 -1 -10 6 0 9
-4 9 -15 -1 -11 -9 -12 -16 -2 -31 10 -16 9 -21 -2 -29 -8 -4 -16 -16 -17 -25
-4 -25 -14 -31 -25 -15 -8 12 -9 9 -8 -10 1 -14 -5 -40 -13 -58 l-15 -33 -17
26 c-15 22 -22 25 -48 20 -18 -4 -28 -3 -25 2 4 6 -9 5 -28 -1 -47 -15 -44
-26 5 -26 22 0 40 -4 40 -10 0 -16 -70 -12 -86 5 -9 8 -31 15 -49 15 -35 0
-55 14 -33 23 9 4 8 6 -3 6 -8 1 -20 -4 -25 -9 -13 -13 -44 -2 -44 16 0 7 8
18 18 23 16 10 16 10 0 11 -10 0 -18 5 -18 10 0 6 8 11 18 11 16 1 16 2 0 6
-10 2 -18 12 -19 21 0 9 -2 30 -3 45 -2 31 15 45 71 57 23 6 33 4 37 -7 3 -8
10 -11 16 -8 5 3 10 -2 10 -12 1 -10 9 -29 20 -41 16 -19 26 -22 50 -17 16 4
30 12 30 19 0 16 73 48 94 40 9 -3 16 -2 16 4 0 6 -6 12 -12 15 -12 4 54 37
73 37 5 0 9 4 9 9 0 15 62 50 77 44 8 -3 10 -9 5 -12z m-689 -18 c-7 -2 -21
-2 -30 0 -10 3 -4 5 12 5 17 0 24 -2 18 -5z m-83 -27 c0 -15 -29 -30 -39 -20
-3 3 3 12 13 20 24 17 26 17 26 0z m114 -17 c14 -13 7 -16 -46 -24 -44 -7 -48
-6 -48 13 0 11 6 23 13 25 15 7 69 -2 81 -14z m141 -9 c18 -8 18 -9 -5 -8 -14
0 -36 4 -50 8 -24 8 -24 8 5 8 17 0 39 -3 50 -8z m-301 -21 c19 -11 40 -18 46
-14 5 3 10 1 10 -4 0 -6 -15 -11 -32 -11 -23 1 -38 8 -51 25 -22 30 -18 31 27
4z m238 -20 l61 1 -21 -23 c-24 -26 -29 -49 -9 -46 27 3 37 -2 37 -21 0 -11 5
-20 10 -20 6 0 10 -4 10 -9 0 -9 -47 3 -82 20 -23 12 -24 12 -43 -8 -22 -22
-35 -3 -35 51 0 32 -2 37 -14 27 -9 -8 -28 -10 -49 -6 -26 5 -36 3 -40 -9 -4
-9 -14 -16 -24 -16 -10 0 -42 -9 -71 -20 -54 -21 -137 -27 -147 -11 -9 16 16
25 60 22 37 -2 41 0 52 28 11 30 36 41 48 21 10 -16 75 -12 92 5 12 12 18 13
29 4 11 -9 19 -8 36 4 13 8 27 13 31 10 5 -3 36 -5 69 -4z m-807 -65 c-24 -24
-30 -9 -8 19 12 18 19 21 21 11 2 -8 -4 -21 -13 -30z m495 36 c0 -5 -7 -10
-16 -10 -8 0 -12 5 -9 10 3 6 10 10 16 10 5 0 9 -4 9 -10z m-148 -36 c17 -16
17 -18 0 -30 -15 -12 -15 -13 8 -12 14 0 55 -3 92 -7 52 -6 75 -4 100 8 18 8
44 17 58 19 22 3 25 -1 25 -28 1 -33 23 -63 41 -57 19 6 64 -16 64 -32 0 -8 9
-15 20 -15 11 0 20 5 20 10 0 6 5 10 11 10 8 0 8 -4 0 -14 -10 -12 -8 -19 6
-33 11 -11 24 -18 29 -16 5 2 14 -7 19 -19 12 -27 44 -36 56 -17 6 11 11 11
21 1 9 -9 9 -12 -5 -12 -9 0 -17 -4 -17 -9 0 -4 -21 -11 -46 -14 -76 -8 -79
-28 -3 -22 90 7 122 15 140 36 23 26 29 24 29 -11 0 -16 5 -30 10 -30 6 0 10
-7 10 -15 0 -8 -6 -12 -14 -9 -8 3 -17 1 -21 -5 -4 -7 4 -11 19 -11 13 0 33
-3 43 -7 10 -3 15 -3 11 2 -4 4 2 17 15 29 21 20 39 51 51 89 3 10 10 16 15
13 5 -4 -1 -25 -14 -49 -13 -23 -31 -56 -40 -74 -9 -18 -23 -37 -31 -44 -8 -6
-14 -20 -14 -31 0 -10 -7 -21 -15 -24 -8 -4 -15 -12 -15 -19 0 -19 -30 -75
-41 -75 -5 0 -9 -7 -9 -15 0 -9 -7 -18 -15 -21 -8 -4 -15 -17 -15 -30 0 -13
-5 -24 -11 -24 -6 0 -8 9 -4 21 5 15 3 20 -6 17 -7 -2 -16 -15 -20 -29 -7 -23
-7 -23 -8 -2 -1 12 4 34 9 49 13 33 -4 61 -26 43 -9 -8 -10 -17 -3 -35 5 -14
9 -36 9 -50 0 -24 -1 -24 -67 -18 -81 7 -95 14 -30 14 26 0 47 5 47 10 0 6
-13 10 -30 10 -29 0 -30 2 -30 45 0 25 -4 45 -10 45 -5 0 -10 7 -10 15 0 19 9
19 32 -2 35 -31 27 -7 -11 35 -21 23 -33 42 -26 42 8 0 17 15 20 33 4 17 11
34 16 37 4 3 4 12 -2 20 -8 13 -11 13 -20 -3 -6 -9 -15 -15 -20 -11 -5 3 -8 0
-7 -8 2 -8 -8 -14 -27 -16 -16 -1 -56 -9 -87 -18 -61 -16 -108 -11 -108 12 0
9 12 14 35 14 19 0 35 5 35 10 0 6 7 10 15 10 8 0 15 4 15 9 0 14 -55 23 -92
16 -18 -3 -28 -3 -22 2 15 11 14 43 -1 43 -7 0 -18 6 -24 14 -10 12 -8 17 8
26 12 6 21 17 21 25 0 8 6 15 14 15 19 0 28 50 10 57 -26 10 -14 23 26 29 43
7 55 23 18 23 -13 0 -54 -3 -92 -6 -66 -5 -68 -6 -45 -20 l24 -14 -25 7 c-14
4 -28 12 -32 19 -19 31 -228 29 -228 -3 0 -13 -2 -13 -18 1 -10 10 -32 17 -49
17 -17 0 -36 7 -43 15 -7 8 -19 15 -26 15 -30 0 -12 20 19 22 53 2 80 5 120
13 25 5 37 4 37 -4 0 -6 18 -11 43 -10 35 0 38 2 20 9 -33 13 -28 20 14 20 20
0 45 -7 55 -16z m341 -11 c-7 -2 -19 -2 -25 0 -7 3 -2 5 12 5 14 0 19 -2 13
-5z m-673 -23 c0 -5 -2 -10 -4 -10 -3 0 -8 5 -11 10 -3 6 -1 10 4 10 6 0 11
-4 11 -10z m477 -56 c-3 -3 -12 -4 -19 -1 -8 3 -5 6 6 6 11 1 17 -2 13 -5z
m-139 -32 c-11 -2 -18 -13 -18 -25 0 -13 -3 -17 -8 -11 -4 6 -16 14 -27 18
-18 7 -17 9 10 20 17 7 37 10 45 7 12 -4 12 -6 -2 -9z m151 -32 c-19 -17 -40
-35 -48 -42 -22 -18 -72 -14 -88 8 -8 12 -10 20 -3 22 5 2 10 9 10 16 0 7 19
12 51 13 28 0 53 4 56 7 4 3 17 6 31 6 24 0 23 -1 -9 -30z m416 20 c-3 -5 -1
-10 4 -10 6 0 11 -4 11 -10 0 -5 -9 -10 -20 -10 -19 0 -27 20 -13 33 10 11 25
8 18 -3z m245 0 c0 -5 -4 -10 -10 -10 -5 0 -10 5 -10 10 0 6 5 10 10 10 6 0
10 -4 10 -10z m-22 -55 c-3 -3 -9 2 -12 12 -6 14 -5 15 5 6 7 -7 10 -15 7 -18z
m42 6 c0 -6 -4 -13 -10 -16 -5 -3 -10 1 -10 9 0 9 5 16 10 16 6 0 10 -4 10 -9z
m-1320 -63 c0 -4 -11 -2 -25 4 -14 6 -25 15 -25 19 0 4 11 2 25 -4 14 -7 25
-15 25 -19z m45 -18 c-3 -5 1 -10 9 -10 9 0 16 -4 16 -10 0 -14 -22 -12 -43 4
-18 14 -18 14 0 19 10 3 19 5 21 6 2 0 0 -3 -3 -9z m611 -140 c15 -6 24 -13
20 -17 -3 -3 -16 -1 -29 5 -12 6 -31 13 -42 15 -18 4 -18 5 2 6 12 0 34 -4 49
-9z m-106 -45 c0 -8 -7 -15 -16 -15 -14 0 -14 3 -4 15 7 8 14 15 16 15 2 0 4
-7 4 -15z m214 -16 c-3 -5 -10 -7 -15 -3 -5 3 -7 10 -3 15 3 5 10 7 15 3 5 -3
7 -10 3 -15z m-295 -13 c9 -11 9 -16 0 -22 -8 -4 -9 -3 -5 4 5 8 0 12 -13 12
-14 0 -19 -5 -15 -15 4 -8 2 -15 -4 -15 -7 0 -10 35 -3 48 4 7 30 0 40 -12z
m316 -96 c3 -5 12 -7 20 -3 8 3 15 1 16 -3 5 -54 18 -68 70 -71 79 -5 127 -74
86 -124 -13 -16 -21 -20 -24 -11 -8 21 -36 14 -30 -8 3 -10 -1 -24 -9 -31 -11
-9 -16 -6 -24 16 -13 34 -13 35 5 35 23 0 6 27 -21 34 -13 4 -24 12 -24 20 0
18 -42 62 -68 71 -26 7 -28 20 -7 29 25 9 18 26 -7 18 -30 -11 -58 -4 -58 13
0 22 62 35 75 15z m-78 -52 c18 -7 33 -15 33 -19 0 -13 -32 -19 -50 -9 -10 6
-28 10 -39 10 -23 0 -28 15 -8 23 20 8 29 8 64 -5z m243 -203 c-7 -9 -15 -13
-19 -10 -3 3 1 10 9 15 21 14 24 12 10 -5z m-37 -50 c-3 -9 -8 -14 -10 -11 -3
3 -2 9 2 15 9 16 15 13 8 -4z"/>
<path d="M6458 6363 c7 -3 16 -2 19 1 4 3 -2 6 -13 5 -11 0 -14 -3 -6 -6z"/>
<path d="M6186 6213 c-3 -3 -6 -16 -6 -27 0 -18 6 -21 48 -22 44 -1 67 10 56
28 -3 4 -16 8 -30 8 -14 0 -33 4 -43 10 -10 5 -21 6 -25 3z"/>
<path d="M6396 6163 c-6 -14 -5 -15 5 -6 7 7 10 15 7 18 -3 3 -9 -2 -12 -12z"/>
<path d="M6145 5973 c-11 -3 -24 -10 -30 -15 -7 -8 -6 -9 3 -4 6 4 12 2 12 -3
0 -6 14 -11 30 -11 23 0 30 4 30 20 0 20 -7 22 -45 13z"/>
<path d="M6000 5845 c0 -9 4 -14 9 -11 5 3 21 -4 37 -16 15 -13 25 -17 21 -11
-4 7 -21 22 -37 33 -26 18 -30 19 -30 5z"/>
<path d="M6080 5804 c0 -9 32 -33 44 -34 5 0 1 9 -9 20 -18 20 -35 26 -35 14z"/>
<path d="M5960 5584 c0 -10 31 -36 37 -31 3 3 -2 13 -10 22 -16 15 -27 19 -27
9z"/>
<path d="M4168 6113 c6 -2 18 -2 25 0 6 3 1 5 -13 5 -14 0 -19 -2 -12 -5z"/>
<path d="M4800 6110 c0 -5 17 -10 38 -9 30 0 33 2 17 9 -28 12 -55 12 -55 0z"/>
<path d="M4225 6090 c3 -5 8 -10 11 -10 2 0 4 5 4 10 0 6 -5 10 -11 10 -5 0
-7 -4 -4 -10z"/>
<path d="M4378 6073 c7 -3 16 -2 19 1 4 3 -2 6 -13 5 -11 0 -14 -3 -6 -6z"/>
<path d="M5200 5860 c0 -5 5 -10 11 -10 5 0 7 5 4 10 -3 6 -8 10 -11 10 -2 0
-4 -4 -4 -10z"/>
<path d="M4348 5843 c-9 -2 -20 -13 -23 -23 -4 -11 -12 -17 -21 -13 -25 9 -16
-33 11 -51 14 -9 23 -21 20 -26 -4 -6 3 -10 13 -10 11 0 25 -7 32 -14 8 -11
18 -12 36 -5 32 12 44 11 44 -1 0 -5 -15 -10 -32 -11 -27 0 -29 -2 -13 -8 11
-5 23 -7 28 -4 4 2 7 -7 7 -20 0 -13 3 -27 8 -31 10 -11 11 -106 0 -106 -4 0
-8 -4 -8 -10 0 -5 9 -10 20 -10 32 0 23 -15 -10 -17 -25 -2 -31 2 -36 24 -4
15 -2 39 3 54 8 19 7 34 -1 50 -22 43 -32 31 -34 -44 -3 -60 0 -76 15 -90 17
-15 133 -37 133 -24 0 3 -13 31 -30 62 -36 68 -38 89 -10 80 14 -5 20 -2 20 9
0 9 5 16 10 16 6 0 10 -4 10 -10 0 -5 4 -10 8 -10 12 0 -30 143 -48 165 -12
14 -12 18 0 25 24 15 3 23 -27 12 -43 -17 -86 -17 -110 -2 -33 21 -28 30 17
30 22 0 40 5 40 10 0 10 -40 12 -72 3z m85 -90 c-7 -2 -19 -2 -25 0 -7 3 -2 5
12 5 14 0 19 -2 13 -5z m80 -89 c2 -13 0 -27 -4 -30 -5 -3 -9 4 -9 15 0 12 -4
21 -10 21 -5 0 -10 7 -10 15 0 23 27 6 33 -21z"/>
<path d="M4255 5831 c-3 -5 -1 -12 5 -16 5 -3 10 1 10 9 0 18 -6 21 -15 7z"/>
<path d="M5278 5833 c7 -3 16 -2 19 1 4 3 -2 6 -13 5 -11 0 -14 -3 -6 -6z"/>
<path d="M5325 5810 c3 -5 8 -10 11 -10 2 0 4 5 4 10 0 6 -5 10 -11 10 -5 0
-7 -4 -4 -10z"/>
<path d="M4261 5751 c-8 -5 -21 -7 -29 -3 -10 3 -13 1 -8 -6 11 -18 56 -15 56
3 0 17 0 18 -19 6z"/>
<path d="M4181 5727 c-14 -6 -27 -19 -29 -27 -5 -13 -3 -13 11 -1 13 10 20 11
31 2 11 -10 14 -7 12 14 0 14 -1 25 -1 25 0 0 -11 -6 -24 -13z"/>
<path d="M5410 5736 c0 -11 80 -89 86 -84 2 2 -17 24 -41 48 -25 24 -45 40
-45 36z"/>
<path d="M4266 5705 c-8 -8 -21 -15 -30 -15 -8 0 -18 -5 -22 -11 -3 -6 -19 -9
-35 -7 -15 3 -26 1 -24 -3 3 -4 -2 -12 -10 -19 -11 -9 -12 -16 -2 -31 6 -10
17 -19 24 -19 6 0 13 -6 15 -12 4 -10 11 -10 34 1 16 8 37 13 47 12 15 -2 18
2 12 21 l-7 23 21 -25 c16 -18 22 -35 20 -65 -3 -45 9 -104 23 -122 16 -20 -1
-73 -23 -73 -10 0 -19 -3 -19 -7 0 -5 22 -8 49 -8 41 0 55 5 78 28 16 15 37
27 46 27 9 0 17 4 17 10 0 10 -68 25 -77 16 -8 -8 -59 30 -61 46 0 7 -4 36 -8
65 -5 41 -3 58 10 79 21 30 14 44 -10 20 -19 -20 -21 -19 -26 13 -2 19 3 26
22 32 24 7 24 7 3 8 -13 1 -23 5 -23 10 0 17 -29 20 -44 6z m-49 -61 c-3 -3
-12 -4 -19 -1 -8 3 -5 6 6 6 11 1 17 -2 13 -5z m173 -269 c0 -16 -35 -21 -45
-6 -4 8 9 15 38 20 4 0 7 -6 7 -14z"/>
<path d="M3878 5694 c-5 -4 -8 -16 -8 -28 0 -14 3 -17 11 -9 6 6 9 19 7 28 -1
9 -6 13 -10 9z"/>
<path d="M4000 5686 c0 -2 7 -6 15 -10 8 -3 15 -1 15 4 0 6 -7 10 -15 10 -8 0
-15 -2 -15 -4z"/>
<path d="M4370 5672 c0 -5 7 -13 16 -16 10 -4 14 -1 12 6 -5 15 -28 23 -28 10z"/>
<path d="M3930 5659 c0 -5 5 -7 10 -4 6 3 10 8 10 11 0 2 -4 4 -10 4 -5 0 -10
-5 -10 -11z"/>
<path d="M3968 5663 c6 -2 18 -2 25 0 6 3 1 5 -13 5 -14 0 -19 -2 -12 -5z"/>
<path d="M4043 5636 c-20 -11 -21 -14 -6 -28 8 -9 12 -21 9 -27 -10 -16 -36
-13 -36 4 0 8 -4 15 -10 15 -5 0 -10 -9 -10 -20 0 -13 -7 -20 -20 -20 -15 0
-20 7 -20 25 0 14 -6 25 -12 25 -20 0 -16 -60 5 -75 14 -10 15 -14 5 -19 -10
-5 -10 -7 0 -12 6 -3 12 -12 12 -20 0 -8 5 -14 11 -14 6 0 9 6 6 13 -7 18 51
43 66 28 25 -25 34 -11 31 44 -3 43 0 55 11 55 8 0 15 5 15 11 0 6 -9 9 -19 6
-14 -3 -18 -1 -14 9 6 16 5 16 -24 0z m17 -98 c0 -18 -2 -20 -9 -8 -6 8 -7 18
-5 22 9 14 14 9 14 -14z m-58 -10 c-7 -7 -12 -8 -12 -2 0 14 12 26 19 19 2 -3
-1 -11 -7 -17z"/>
<path d="M5506 5641 c-3 -5 -3 -11 1 -13 5 -1 26 -25 48 -53 22 -27 52 -62 67
-77 16 -14 28 -30 28 -36 0 -10 23 -22 41 -22 6 0 7 5 4 10 -4 6 -11 8 -16 5
-5 -4 -9 -3 -9 2 0 4 -21 31 -48 59 -26 28 -62 69 -79 93 -17 23 -34 38 -37
32z"/>
<path d="M4080 5589 c0 -5 5 -7 10 -4 6 3 10 8 10 11 0 2 -4 4 -10 4 -5 0 -10
-5 -10 -11z"/>
<path d="M4010 5490 c-13 -8 -13 -10 2 -10 9 0 20 5 23 10 8 13 -5 13 -25 0z"/>
<path d="M5738 5483 c7 -3 16 -2 19 1 4 3 -2 6 -13 5 -11 0 -14 -3 -6 -6z"/>
<path d="M5710 5432 c0 -4 15 -16 33 -26 l32 -18 -27 26 c-28 27 -38 32 -38
18z"/>
<path d="M4030 5411 c-51 -27 -61 -31 -72 -31 -17 -1 -111 -70 -104 -77 3 -3
27 11 54 31 27 20 59 36 70 36 11 0 22 5 24 11 2 6 25 13 51 16 40 5 53 1 85
-21 21 -14 46 -26 55 -26 22 0 87 -37 111 -63 14 -14 21 -16 24 -8 6 17 -27
51 -50 51 -10 0 -18 4 -18 10 0 5 -19 14 -41 20 -23 7 -59 22 -80 36 -39 24
-81 30 -109 15z"/>
<path d="M5670 5400 c0 -5 5 -10 10 -10 6 0 10 5 10 10 0 6 -4 10 -10 10 -5 0
-10 -4 -10 -10z"/>
<path d="M5681 5363 c-7 -8 -11 -16 -8 -19 2 -2 10 2 17 11 17 20 9 27 -9 8z"/>
<path d="M5785 5225 c33 -30 63 -55 67 -55 4 0 4 -7 1 -17 -4 -11 -3 -14 5 -9
11 7 51 -63 53 -93 0 -12 2 -13 6 -3 4 10 8 9 17 -5 6 -11 21 -35 33 -54 23
-35 32 -109 13 -109 -5 0 -10 22 -10 49 0 31 -5 53 -15 61 -13 11 -14 10 -9
-4 3 -9 1 -16 -4 -16 -6 0 -12 8 -14 18 -3 9 -5 -2 -5 -25 0 -24 4 -43 8 -43
5 0 9 9 9 19 0 11 5 23 10 26 11 7 14 -44 3 -71 -6 -16 -7 -16 -15 2 -6 13 -7
8 -3 -16 4 -27 3 -32 -7 -22 -7 7 -21 12 -32 11 -12 0 -15 -3 -8 -6 22 -9 13
-33 -12 -33 -14 0 -28 -5 -32 -11 -5 -9 4 -10 32 -4 21 4 41 10 44 15 3 4 24
18 48 30 27 14 42 29 42 41 0 10 5 19 10 19 6 0 10 7 10 15 0 8 -4 15 -10 15
-5 0 -10 7 -10 15 0 8 -4 15 -10 15 -5 0 -10 7 -10 15 0 8 -4 15 -10 15 -5 0
-10 7 -10 15 0 8 -4 15 -10 15 -5 0 -10 7 -10 15 0 8 -4 15 -10 15 -5 0 -10 6
-10 13 0 8 -9 25 -21 38 -11 13 -28 35 -36 49 -8 14 -32 37 -54 52 -21 15 -39
35 -39 43 0 10 -10 15 -27 15 -25 0 -23 -3 32 -55z"/>
<path d="M3811 5228 c-19 -22 -40 -37 -48 -34 -7 3 -13 2 -13 -3 0 -5 -15 -19
-34 -32 -19 -13 -32 -27 -30 -31 3 -4 0 -8 -5 -8 -6 0 -10 -12 -10 -27 1 -21
3 -23 6 -8 5 23 75 92 89 88 17 -5 102 82 87 89 -4 3 -23 -13 -42 -34z"/>
<path d="M4220 5220 c0 -5 16 -10 36 -10 21 0 33 4 29 10 -3 6 -19 10 -36 10
-16 0 -29 -4 -29 -10z"/>
<path d="M4010 5185 c-32 -34 -16 -46 16 -13 14 14 22 28 16 31 -5 4 -20 -5
-32 -18z"/>
<path d="M3470 5171 c0 -6 5 -13 10 -16 6 -3 10 1 10 9 0 9 -4 16 -10 16 -5 0
-10 -4 -10 -9z"/>
<path d="M3520 5156 c-15 -17 -21 -33 -18 -50 5 -27 -2 -31 -49 -27 -12 1 -28
-8 -37 -21 -23 -32 -20 -42 5 -19 16 15 30 18 52 14 22 -4 33 -1 42 11 7 9 17
16 21 15 21 -4 26 2 14 16 -8 9 -10 29 -7 50 3 19 5 35 3 35 -1 0 -13 -11 -26
-24z"/>
<path d="M3948 5113 c-25 -29 -32 -62 -14 -69 25 -10 46 15 46 52 0 38 -9 43
-32 17z"/>
<path d="M3555 5110 c3 -5 8 -10 11 -10 2 0 4 5 4 10 0 6 -5 10 -11 10 -5 0
-7 -4 -4 -10z"/>
<path d="M3591 5093 c3 -21 -2 -32 -14 -27 -7 2 -24 -8 -37 -23 -14 -17 -19
-28 -12 -31 16 -5 15 -29 0 -35 -16 -5 -14 -93 3 -113 7 -9 10 -32 7 -59 -3
-26 -1 -45 4 -45 6 0 26 16 45 35 23 23 44 35 63 35 29 0 44 19 34 45 -4 8 -1
15 5 15 6 0 11 9 11 20 0 21 27 40 59 40 12 0 21 7 21 15 0 17 -23 20 -51 5
-31 -17 -59 4 -59 44 0 36 -27 75 -47 69 -7 -3 -13 0 -13 6 0 6 -4 11 -10 11
-5 0 -9 -3 -9 -7z m53 -45 c3 -13 7 -40 11 -60 3 -20 10 -38 16 -40 7 -2 7
-21 2 -53 -8 -47 -10 -50 -41 -53 -17 -2 -32 -7 -32 -13 0 -5 -6 -9 -14 -9 -8
0 -17 -6 -19 -12 -3 -7 -6 4 -6 24 -1 20 -5 40 -11 43 -13 8 -13 82 0 90 5 3
9 21 8 40 -1 19 2 38 5 42 4 3 7 -3 7 -15 0 -22 10 -28 24 -14 4 4 13 7 19 7
7 0 11 10 9 23 -4 29 16 29 22 0z"/>
<path d="M3580 4991 c0 -5 -3 -16 -6 -25 -10 -26 10 -18 23 9 9 20 8 25 -3 25
-8 0 -14 -4 -14 -9z"/>
<path d="M3550 4925 c0 -8 2 -15 4 -15 2 0 6 7 10 15 3 8 1 15 -4 15 -6 0 -10
-7 -10 -15z"/>
<path d="M3385 5080 c-3 -5 -1 -10 4 -10 6 0 11 5 11 10 0 6 -2 10 -4 10 -3 0
-8 -4 -11 -10z"/>
<path d="M4160 5064 c0 -10 31 -36 37 -31 10 10 -6 37 -22 37 -8 0 -15 -3 -15
-6z"/>
<path d="M5876 5055 c-3 -8 -1 -15 4 -15 6 0 10 7 10 15 0 8 -2 15 -4 15 -2 0
-6 -7 -10 -15z"/>
<path d="M3372 5013 c-8 -7 -8 -13 -2 -13 5 0 10 -5 10 -11 0 -6 -8 -8 -19 -4
-12 3 -21 0 -25 -10 -3 -8 -10 -15 -16 -15 -17 0 -42 -29 -35 -40 3 -5 0 -10
-7 -10 -8 0 -19 -14 -26 -32 -10 -26 -9 -35 3 -48 8 -9 15 -28 15 -43 0 -14 7
-32 15 -40 8 -8 11 -18 7 -21 -3 -4 1 -4 11 0 14 5 16 2 11 -24 -4 -18 0 -43
9 -63 16 -34 20 -58 18 -91 -1 -13 -10 -18 -31 -18 -39 0 -39 -16 0 -22 36 -5
43 -1 59 38 13 34 5 66 -31 116 -16 24 -18 32 -8 38 19 12 98 22 110 15 13 -8
50 4 50 16 0 5 -40 9 -90 9 -74 0 -88 3 -84 14 3 8 19 18 35 21 30 7 37 19 18
30 -6 5 -3 13 10 22 12 8 21 21 21 29 0 8 7 14 15 14 17 0 20 16 6 25 -5 3
-17 -8 -27 -24 -28 -47 -98 -68 -123 -37 -10 12 -8 19 8 35 12 12 21 30 21 41
0 20 54 50 91 50 11 0 19 5 19 10 0 6 -4 10 -10 10 -5 0 -10 5 -10 11 0 5 5 7
10 4 14 -9 12 4 -3 19 -10 11 -15 10 -25 -1z m-59 -230 c-7 -2 -19 -2 -25 0
-7 3 -2 5 12 5 14 0 19 -2 13 -5z"/>
<path d="M3930 4971 c-24 -20 -34 -37 -35 -57 0 -24 -5 -30 -27 -32 -26 -3
-41 -22 -18 -22 6 0 10 -4 10 -10 0 -14 -38 -12 -43 3 -2 6 -8 9 -12 5 -11
-11 21 -38 44 -38 12 0 21 5 21 11 0 8 12 10 35 6 28 -5 38 -2 50 16 8 12 15
32 15 44 0 12 9 38 20 58 25 44 25 45 -2 45 -13 0 -39 -13 -58 -29z m31 -19
c-22 -41 -62 -55 -47 -17 4 12 31 29 54 34 1 1 -2 -7 -7 -17z m-14 -68 c-3 -3
-12 -4 -19 -1 -8 3 -5 6 6 6 11 1 17 -2 13 -5z m-32 -14 c3 -5 1 -10 -4 -10
-6 0 -11 5 -11 10 0 6 2 10 4 10 3 0 8 -4 11 -10z"/>
<path d="M4310 4980 c0 -5 5 -10 10 -10 6 0 10 5 10 10 0 6 -4 10 -10 10 -5 0
-10 -4 -10 -10z"/>
<path d="M4022 4936 c1 -10 8 -17 13 -17 15 1 12 24 -3 29 -9 3 -13 -2 -10
-12z"/>
<path d="M3780 4910 c0 -5 5 -10 10 -10 6 0 10 5 10 10 0 6 -4 10 -10 10 -5 0
-10 -4 -10 -10z"/>
<path d="M5815 4790 c3 -5 8 -10 11 -10 2 0 4 5 4 10 0 6 -5 10 -11 10 -5 0
-7 -4 -4 -10z"/>
<path d="M5700 4720 c-9 -6 -10 -10 -3 -10 6 0 15 5 18 10 8 12 4 12 -15 0z"/>
<path d="M2610 4631 c0 -6 5 -13 10 -16 6 -3 10 1 10 9 0 9 -4 16 -10 16 -5 0
-10 -4 -10 -9z"/>
<path d="M2656 4618 l-30 -25 27 -29 c15 -16 27 -32 27 -36 0 -17 52 -82 68
-84 9 -2 22 -10 28 -19 9 -12 14 -13 19 -4 4 6 2 15 -4 19 -7 4 -12 25 -13 48
0 31 -8 49 -29 73 -16 18 -29 36 -29 41 0 4 -6 8 -14 8 -8 0 -16 8 -18 17 -3
14 -7 13 -32 -9z m32 -44 c-15 -15 -16 -15 -23 5 -9 31 4 46 23 27 15 -15 15
-17 0 -32z m53 -57 c-12 -12 -45 -1 -37 12 3 5 15 7 27 4 13 -4 17 -9 10 -16z"/>
<path d="M2760 4580 c0 -5 5 -10 10 -10 6 0 10 5 10 10 0 6 -4 10 -10 10 -5 0
-10 -4 -10 -10z"/>
<path d="M2636 4543 c22 -68 64 -126 64 -89 0 9 -5 16 -11 16 -5 0 -7 5 -4 10
3 6 1 10 -5 10 -6 0 -18 16 -26 35 -15 36 -28 49 -18 18z"/>
<path d="M4670 4536 c0 -8 5 -18 10 -21 6 -3 10 -14 10 -24 0 -29 78 -94 105
-89 20 4 22 3 12 -14 -7 -10 -15 -18 -19 -18 -10 0 -10 -77 0 -84 17 -10 78
-16 91 -7 11 7 9 18 -12 62 -13 30 -32 70 -40 90 -10 21 -39 53 -72 77 -58 44
-85 52 -85 28z m80 -66 c0 -5 -5 -10 -11 -10 -5 0 -7 5 -4 10 3 6 8 10 11 10
2 0 4 -4 4 -10z m72 -140 c-2 -16 -7 -30 -11 -30 -4 0 -6 14 -3 30 2 17 7 30
11 30 4 0 6 -13 3 -30z"/>
<path d="M7041 4534 c0 -11 3 -14 6 -6 3 7 2 16 -1 19 -3 4 -6 -2 -5 -13z"/>
<path d="M2802 4520 c0 -14 2 -19 5 -12 2 6 2 18 0 25 -3 6 -5 1 -5 -13z"/>
<path d="M4360 4520 c0 -5 9 -10 20 -10 11 0 20 5 20 10 0 6 -9 10 -20 10 -11
0 -20 -4 -20 -10z"/>
<path d="M4206 4464 c-14 -26 -26 -51 -26 -55 0 -5 -5 -18 -12 -28 -17 -28 5
-52 46 -47 17 2 39 4 49 5 9 0 17 6 17 12 0 7 -11 9 -30 6 -16 -4 -30 -2 -30
3 0 5 -8 7 -17 5 -10 -3 -6 0 8 7 21 10 24 17 18 33 -12 32 -10 40 6 19 13
-17 14 -15 9 26 -2 24 -2 41 1 38 3 -3 8 -19 10 -34 2 -16 4 -30 6 -31 1 -2 2
-9 3 -15 0 -7 15 -16 31 -19 l30 -7 -28 -1 c-16 0 -26 -5 -22 -11 9 -14 37
-12 72 5 31 16 51 19 97 17 16 -1 26 -5 22 -9 -3 -4 -27 -6 -51 -4 -26 1 -45
-2 -45 -9 0 -5 8 -10 18 -11 97 -5 124 -4 132 7 16 18 3 38 -33 53 -17 8 -34
17 -37 20 -11 13 -51 31 -69 31 -10 0 -31 -7 -47 -15 -25 -13 -30 -13 -44 3
-9 9 -19 25 -23 35 -11 30 -34 19 -61 -29z m9 -64 c3 -5 1 -10 -4 -10 -6 0
-11 5 -11 10 0 6 2 10 4 10 3 0 8 -4 11 -10z m152 4 c-3 -3 -12 -4 -19 -1 -8
3 -5 6 6 6 11 1 17 -2 13 -5z"/>
<path d="M3745 4477 c-11 -25 38 -117 62 -117 13 0 83 -81 83 -97 0 -19 -21
-16 -36 5 -11 15 -13 14 -12 -14 1 -32 -27 -74 -49 -74 -7 0 -13 -9 -13 -20 0
-13 -7 -20 -20 -20 -11 0 -20 5 -20 10 0 6 -7 10 -15 10 -8 0 -15 5 -15 10 0
6 -7 10 -15 10 -8 0 -15 9 -15 20 0 18 7 20 60 20 46 0 60 3 60 15 0 8 -32 46
-72 85 -67 66 -73 70 -86 53 -7 -10 -10 -28 -8 -40 10 -37 -4 -83 -25 -83 -16
0 -19 8 -19 45 0 25 5 45 10 45 6 0 10 14 10 30 0 18 5 30 13 30 19 0 36 20
30 36 -5 14 -53 20 -53 7 0 -13 -53 -33 -64 -24 -28 21 -47 20 -55 -1 -4 -12
-30 -33 -57 -47 -34 -19 -55 -38 -70 -66 -26 -50 -72 -74 -131 -67 -43 5 -56
-6 -30 -25 25 -21 76 -21 148 -3 52 14 75 16 80 8 4 -6 50 -13 108 -16 56 -2
101 -9 101 -13 0 -5 6 -9 14 -9 11 0 13 -10 9 -40 -4 -26 -2 -40 6 -40 20 0
11 -17 -16 -29 l-27 -12 30 -24 c16 -13 37 -24 47 -25 24 0 57 -20 80 -47 10
-13 35 -30 55 -40 20 -9 40 -22 45 -27 9 -14 29 14 22 32 -2 6 0 12 5 12 6 0
10 5 10 11 0 31 61 49 100 29 11 -5 29 -14 40 -20 11 -5 29 -10 39 -10 11 0
23 -4 26 -10 8 -14 132 -13 141 1 3 6 27 10 53 9 25 -2 51 -2 57 -1 14 1 24
44 31 129 4 57 3 62 -16 62 -11 0 -23 -4 -26 -10 -8 -14 -51 -13 -74 2 -15 9
-22 8 -36 -5 -12 -13 -21 -14 -35 -7 -25 14 -30 13 -30 -6 0 -23 -23 -12 -38
19 -14 29 -49 39 -38 11 3 -9 4 -20 1 -25 -8 -12 -55 12 -55 28 0 8 -6 13 -12
10 -7 -2 -12 -16 -10 -31 1 -14 -1 -26 -6 -26 -20 0 -81 66 -88 95 -4 17 -10
35 -15 40 -4 6 -11 30 -15 54 -7 42 -36 81 -60 81 -15 0 -80 79 -86 105 -5 18
-6 19 -13 2z m-252 -111 c4 -10 1 -13 -8 -9 -8 3 -12 9 -9 14 7 12 11 11 17
-5z m68 2 c0 -10 2 -10 6 0 2 6 9 10 14 6 5 -3 4 -14 -2 -26 -6 -11 -9 -45 -7
-74 l5 -54 -61 0 c-55 1 -59 2 -38 13 12 7 20 16 17 19 -3 3 3 11 12 19 16 13
17 12 4 -3 -8 -11 -9 -18 -3 -18 13 0 17 7 26 43 5 20 3 27 -8 27 -8 0 -16 -3
-19 -7 -2 -5 -2 -2 0 5 1 8 3 22 3 32 0 16 12 24 43 29 4 0 7 -5 8 -11z m-77
-37 c6 -9 -36 -41 -54 -41 -5 0 -10 7 -10 15 0 8 7 15 15 15 8 0 15 5 15 10 0
12 27 13 34 1z m233 -38 c10 -9 7 -11 -14 -9 -21 2 -29 9 -31 27 -4 21 -2 22
15 9 10 -8 24 -20 30 -27z m-310 -24 c-3 -10 0 -20 7 -23 6 -2 -4 -5 -22 -5
-20 -1 -31 3 -27 9 3 6 13 10 22 10 10 0 14 6 10 20 -3 12 -1 18 5 14 5 -3 8
-15 5 -25z m263 2 c0 -6 -4 -13 -10 -16 -5 -3 -10 1 -10 9 0 9 5 16 10 16 6 0
10 -4 10 -9z m45 -1 c3 -5 12 -7 20 -4 8 3 22 -1 30 -10 15 -15 13 -16 -29
-16 -25 0 -48 -5 -51 -10 -4 -6 -11 -8 -16 -5 -10 7 18 55 32 55 4 0 10 -4 14
-10z m-248 -26 c-3 -3 -12 -4 -19 -1 -8 3 -5 6 6 6 11 1 17 -2 13 -5z m188
-34 c3 -5 1 -10 -4 -10 -6 0 -11 5 -11 10 0 6 2 10 4 10 3 0 8 -4 11 -10z
m252 -43 c2 -38 8 -52 30 -72 15 -13 33 -25 39 -25 6 0 11 -7 11 -16 0 -10 -7
-14 -19 -11 -10 3 -21 0 -25 -5 -4 -8 6 -9 30 -5 21 3 37 2 37 -2 0 -8 57 -25
73 -22 5 1 6 -3 3 -8 -4 -5 20 -14 51 -21 32 -6 72 -14 88 -19 25 -8 20 -9
-32 -10 -34 -1 -65 4 -68 9 -3 6 -17 10 -30 10 -13 0 -27 5 -30 10 -3 6 -15
10 -26 10 -10 0 -19 5 -19 10 0 6 -23 10 -51 10 -31 0 -48 4 -44 10 11 17 -1
11 -21 -11 -19 -22 -19 -22 6 -15 25 6 25 6 3 -5 -13 -7 -23 -19 -23 -27 0 -9
-6 -12 -16 -8 -12 4 -15 2 -10 -9 3 -8 1 -15 -4 -15 -6 0 -10 5 -10 10 0 6 -6
10 -14 10 -8 0 -28 12 -44 28 -50 46 -60 52 -86 52 -14 0 -28 4 -31 10 -4 6 1
7 11 3 15 -5 16 -2 11 27 -4 18 -7 42 -8 54 0 20 -1 21 -9 1 -8 -19 -9 -19 -9
3 -1 13 5 22 14 22 10 0 15 -11 15 -35 0 -28 3 -33 17 -28 11 4 14 3 9 -5 -4
-7 -2 -12 4 -12 6 0 15 -12 21 -27 10 -27 11 -27 25 -9 8 11 14 26 14 33 0 7
7 13 16 13 11 0 14 6 9 23 -5 17 -4 19 4 7 10 -14 16 -7 12 14 -1 4 8 16 20
26 11 11 18 23 15 29 -10 16 5 42 23 39 12 -2 17 -16 18 -51z m-92 -17 c3 -5
1 -10 -4 -10 -6 0 -11 5 -11 10 0 6 2 10 4 10 3 0 8 -4 11 -10z m136 -37 c13
-16 12 -17 -3 -4 -17 13 -22 21 -14 21 2 0 10 -8 17 -17z m-191 -3 c0 -5 -4
-10 -10 -10 -5 0 -10 5 -10 10 0 6 5 10 10 10 6 0 10 -4 10 -10z m390 -22 c0
-13 -23 -5 -28 10 -2 7 2 10 12 6 9 -3 16 -11 16 -16z m220 11 c0 -18 -27 -39
-50 -39 -28 0 -21 21 11 37 30 16 39 16 39 2z m-272 -15 c37 -10 25 -24 -22
-24 -43 0 -63 10 -49 24 8 8 41 8 71 0z m114 -6 c12 -7 37 -27 55 -44 30 -29
90 -54 77 -33 -3 5 0 9 5 9 6 0 11 -10 11 -21 0 -21 -3 -22 -77 -14 -43 4 -87
7 -99 6 -12 0 -21 6 -21 14 0 8 5 15 10 15 5 0 7 6 4 14 -3 8 2 16 14 19 12 3
17 11 13 21 -3 9 -10 13 -15 10 -5 -3 -9 0 -9 5 0 14 5 14 32 -1z m165 -30
c-3 -8 -6 -5 -6 6 -1 11 2 17 5 13 3 -3 4 -12 1 -19z m-320 -14 c-3 -3 -12 -4
-19 -1 -8 3 -5 6 6 6 11 1 17 -2 13 -5z"/>
<path d="M3876 4195 c-3 -8 -1 -15 4 -15 6 0 10 7 10 15 0 8 -2 15 -4 15 -2 0
-6 -7 -10 -15z"/>
<path d="M3870 4130 c0 -5 5 -10 11 -10 5 0 7 5 4 10 -3 6 -8 10 -11 10 -2 0
-4 -4 -4 -10z"/>
<path d="M3920 4077 c0 -9 4 -18 9 -21 5 -4 8 1 7 9 -3 21 -16 31 -16 12z"/>
<path d="M3790 4011 c0 -6 5 -13 10 -16 6 -3 10 1 10 9 0 9 -4 16 -10 16 -5 0
-10 -4 -10 -9z"/>
<path d="M3816 3982 c-3 -5 9 -9 27 -9 26 -1 28 1 12 7 -27 11 -33 12 -39 2z"/>
<path d="M4205 4020 c-4 -6 7 -10 24 -10 17 0 31 -4 31 -10 0 -5 5 -10 12 -10
6 0 3 9 -7 20 -19 21 -50 26 -60 10z"/>
<path d="M6918 4460 c-5 -36 6 -47 27 -26 22 21 19 56 -4 56 -13 0 -20 -9 -23
-30z"/>
<path d="M7048 4463 c5 -21 7 -23 10 -9 2 10 0 22 -6 28 -6 6 -7 0 -4 -19z"/>
<path d="M2795 4470 c3 -5 8 -10 11 -10 2 0 4 5 4 10 0 6 -5 10 -11 10 -5 0
-7 -4 -4 -10z"/>
<path d="M2714 4427 c3 -10 6 -21 6 -23 0 -2 12 -4 26 -4 14 0 23 4 19 10 -4
6 -11 7 -17 4 -6 -4 -18 2 -26 12 -14 18 -14 18 -8 1z"/>
<path d="M7005 4410 c-3 -5 1 -10 9 -10 9 0 16 5 16 10 0 6 -4 10 -9 10 -6 0
-13 -4 -16 -10z"/>
<path d="M6833 4367 c-14 -30 1 -61 17 -37 12 18 12 31 2 48 -6 9 -11 6 -19
-11z"/>
<path d="M3047 4361 c-4 -17 -3 -21 5 -13 5 5 8 16 6 23 -3 8 -7 3 -11 -10z"/>
<path d="M3031 4283 c-1 -24 1 -43 3 -43 8 0 12 48 5 66 -5 13 -8 7 -8 -23z"/>
<path d="M4064 4275 c-4 -8 -15 -15 -26 -15 -25 0 -19 -22 11 -35 12 -5 24
-20 28 -32 3 -13 12 -23 20 -23 11 0 12 8 7 38 -9 50 -16 60 -26 36 -5 -13 -6
-8 -2 14 6 33 -2 44 -12 17z"/>
<path d="M6797 4269 c4 -13 8 -18 11 -10 2 7 -1 18 -6 23 -8 8 -9 4 -5 -13z"/>
<path d="M4798 4243 c7 -3 16 -2 19 1 4 3 -2 6 -13 5 -11 0 -14 -3 -6 -6z"/>
<path d="M2730 4181 c0 -18 27 -37 38 -26 3 3 0 5 -6 5 -7 0 -12 9 -12 20 0
11 -4 20 -10 20 -5 0 -10 -9 -10 -19z"/>
<path d="M5318 4003 c-6 -16 -94 -52 -131 -55 -20 -2 -37 -8 -37 -13 0 -12 82
-7 95 6 5 5 17 9 27 9 10 0 18 3 18 8 0 9 49 32 68 32 7 0 10 5 7 10 -7 12
-42 14 -47 3z"/>
<path d="M4900 3992 c0 -5 12 -21 26 -36 27 -26 54 -34 54 -16 0 6 -7 10 -16
10 -9 0 -27 11 -40 26 -13 14 -24 21 -24 16z"/>
<path d="M5115 3977 c-11 -7 -22 -14 -25 -17 -15 -15 -53 -30 -75 -30 -15 0
-24 -4 -21 -8 3 -5 13 -8 23 -7 25 3 103 38 103 47 0 5 9 8 21 8 11 0 17 5 14
10 -8 12 -15 12 -40 -3z"/>
<path d="M4802 3940 c0 -14 2 -19 5 -12 2 6 2 18 0 25 -3 6 -5 1 -5 -13z"/>
<path d="M1872 3920 c0 -14 2 -19 5 -12 2 6 2 18 0 25 -3 6 -5 1 -5 -13z"/>
<path d="M4840 3880 c0 -5 5 -10 11 -10 5 0 7 5 4 10 -3 6 -8 10 -11 10 -2 0
-4 -4 -4 -10z"/>
<path d="M4865 3852 c6 -4 15 -16 21 -26 6 -11 17 -21 25 -24 11 -2 11 0 -2
10 -8 7 -18 21 -22 31 -3 9 -12 17 -19 17 -8 0 -9 -3 -3 -8z"/>
<path d="M5072 3825 c-12 -19 -29 -35 -37 -35 -8 0 -15 -4 -15 -10 0 -19 22
-10 49 19 26 28 29 29 45 13 16 -16 17 -16 10 1 -3 9 -10 17 -14 17 -5 0 -10
7 -12 15 -2 9 -11 2 -26 -20z"/>
<path d="M1893 3800 c0 -25 2 -35 4 -22 2 12 2 32 0 45 -2 12 -4 2 -4 -23z"/>
<path d="M4937 3814 c-4 -4 -7 -17 -7 -28 1 -19 1 -20 11 -3 11 19 8 43 -4 31z"/>
<path d="M5140 3800 c0 -5 9 -10 20 -10 11 0 20 -4 20 -10 0 -5 -6 -10 -14
-10 -8 0 -18 -4 -21 -10 -3 -5 0 -7 8 -4 8 3 18 0 22 -6 8 -13 -16 -70 -30
-70 -5 0 -3 -5 5 -10 10 -6 11 -10 3 -10 -7 0 -13 -7 -13 -15 0 -8 -4 -15 -10
-15 -5 0 -10 -4 -10 -10 0 -5 -11 -20 -25 -34 -14 -14 -25 -22 -25 -18 0 3 -8
-5 -17 -18 -9 -14 -24 -30 -32 -36 -39 -29 -60 -52 -54 -58 3 -3 -4 -6 -16 -6
-12 0 -19 -4 -16 -10 3 -5 -1 -10 -9 -10 -9 0 -16 -5 -16 -11 0 -6 -9 -8 -20
-4 -14 5 -18 2 -15 -7 3 -8 -5 -20 -20 -28 -14 -7 -25 -17 -25 -22 0 -16 -51
-8 -56 10 -19 58 -68 129 -79 112 -3 -5 -1 -10 4 -10 6 0 11 -7 11 -15 0 -8 3
-15 8 -15 10 0 32 -50 32 -72 0 -10 5 -18 10 -18 6 0 10 -9 10 -20 0 -11 5
-20 11 -20 9 0 103 60 153 99 38 29 203 196 219 221 22 34 49 118 42 129 -3 5
0 11 7 13 9 3 8 9 -4 21 -18 18 -58 23 -58 7z"/>
<path d="M4966 3758 c3 -4 22 -8 42 -8 29 1 33 3 20 10 -19 11 -69 10 -62 -2z"/>
<path d="M1913 3690 c0 -25 2 -35 4 -22 2 12 2 32 0 45 -2 12 -4 2 -4 -23z"/>
<path d="M4391 3704 c0 -11 3 -14 6 -6 3 7 2 16 -1 19 -3 4 -6 -2 -5 -13z"/>
<path d="M4536 3697 c3 -9 10 -17 14 -17 5 0 11 -8 13 -17 4 -15 5 -15 6 -2 0
9 -8 24 -19 34 -18 17 -20 17 -14 2z"/>
<path d="M5920 3665 c0 -8 7 -15 15 -15 9 0 15 -9 15 -25 0 -14 5 -25 10 -25
13 0 13 4 -4 45 -15 36 -36 47 -36 20z"/>
<path d="M4426 3641 c-4 -7 -5 -15 -2 -18 9 -9 19 4 14 18 -4 11 -6 11 -12 0z"/>
<path d="M4581 3634 c0 -11 3 -14 6 -6 3 7 2 16 -1 19 -3 4 -6 -2 -5 -13z"/>
<path d="M5825 3640 c3 -5 8 -10 11 -10 2 0 4 5 4 10 0 6 -5 10 -11 10 -5 0
-7 -4 -4 -10z"/>
<path d="M1931 3609 c0 -19 5 -44 13 -55 8 -11 12 -32 10 -49 l-5 -30 17 30
c11 20 13 30 5 33 -6 2 -11 15 -11 28 0 13 -4 24 -9 24 -5 0 -12 12 -14 28 -3
23 -4 22 -6 -9z"/>
<path d="M6031 3618 c1 -16 3 -18 6 -6 2 9 12 19 21 21 12 3 10 5 -5 6 -18 1
-23 -4 -22 -21z"/>
<path d="M6260 3620 c0 -13 7 -20 20 -20 13 0 20 7 20 20 0 13 -7 20 -20 20
-13 0 -20 -7 -20 -20z"/>
<path d="M4600 3593 c0 -4 16 -25 35 -47 19 -21 35 -42 35 -47 0 -5 5 -9 10
-9 21 0 9 23 -35 67 -25 24 -45 41 -45 36z"/>
<path d="M5922 3589 c2 -7 10 -15 17 -17 8 -3 12 1 9 9 -2 7 -10 15 -17 17 -8
3 -12 -1 -9 -9z"/>
<path d="M2671 3564 c0 -11 3 -14 6 -6 3 7 2 16 -1 19 -3 4 -6 -2 -5 -13z"/>
<path d="M4480 3538 c0 -19 2 -20 10 -8 13 19 13 30 0 30 -5 0 -10 -10 -10
-22z"/>
<path d="M4970 3506 c7 -7 13 -7 20 0 6 6 3 10 -10 10 -13 0 -16 -4 -10 -10z"/>
<path d="M1985 3491 c-3 -5 -1 -12 5 -16 5 -3 10 1 10 9 0 18 -6 21 -15 7z"/>
<path d="M4510 3472 c0 -4 11 -15 24 -25 13 -10 27 -29 30 -43 4 -13 11 -24
16 -24 11 0 -23 64 -45 86 -15 16 -25 18 -25 6z"/>
<path d="M1972 3435 c0 -16 2 -22 5 -12 2 9 2 23 0 30 -3 6 -5 -1 -5 -18z"/>
<path d="M2000 3444 c0 -8 5 -12 10 -9 6 4 8 11 5 16 -9 14 -15 11 -15 -7z"/>
<path d="M2690 3440 c0 -5 5 -10 11 -10 5 0 7 5 4 10 -3 6 -8 10 -11 10 -2 0
-4 -4 -4 -10z"/>
<path d="M1992 3380 c0 -19 2 -27 5 -17 2 9 2 25 0 35 -3 9 -5 1 -5 -18z"/>
<path d="M2041 3374 c0 -11 3 -14 6 -6 3 7 2 16 -1 19 -3 4 -6 -2 -5 -13z"/>
<path d="M2731 3374 c0 -11 3 -14 6 -6 3 7 2 16 -1 19 -3 4 -6 -2 -5 -13z"/>
<path d="M2062 3340 c0 -14 2 -19 5 -12 2 6 2 18 0 25 -3 6 -5 1 -5 -13z"/>
<path d="M2004 3336 c-3 -8 -1 -23 5 -33 9 -15 10 -13 11 15 0 34 -7 42 -16
18z"/>
<path d="M2748 3329 c-3 -8 2 -26 13 -40 15 -20 19 -21 19 -6 0 9 -4 17 -9 17
-5 0 -11 10 -13 23 -2 17 -5 18 -10 6z"/>
<path d="M2080 3305 c0 -11 7 -30 15 -42 8 -12 16 -33 17 -47 1 -13 6 -22 11
-19 4 3 7 -15 5 -39 -3 -44 -20 -56 -26 -18 -2 11 -8 18 -13 15 -5 -4 -9 5 -9
19 0 14 -4 26 -10 26 -5 0 -10 9 -10 19 0 11 -4 23 -10 26 -5 3 -10 18 -10 33
-1 21 -3 23 -10 12 -9 -16 9 -90 22 -90 5 0 8 -7 8 -15 0 -8 5 -24 10 -35 6
-11 15 -29 20 -40 6 -11 10 -28 10 -37 1 -14 6 -11 25 12 18 21 25 42 25 73 0
23 -4 42 -10 42 -5 0 -10 11 -10 24 0 13 -4 26 -8 28 -4 2 -15 19 -25 38 -12
26 -17 29 -17 15z"/>
<path d="M4600 3290 c0 -5 5 -10 11 -10 5 0 7 5 4 10 -3 6 -8 10 -11 10 -2 0
-4 -4 -4 -10z"/>
<path d="M2792 3264 c2 -6 25 -36 53 -67 40 -47 55 -57 80 -56 l30 1 -29 8
c-15 5 -53 35 -83 67 -30 32 -53 53 -51 47z"/>
<path d="M4640 3210 c0 -5 5 -10 11 -10 5 0 7 5 4 10 -3 6 -8 10 -11 10 -2 0
-4 -4 -4 -10z"/>
<path d="M2955 3130 c-4 -6 9 -10 32 -10 28 0 34 3 23 10 -20 13 -47 13 -55 0z"/>
<path d="M3030 3110 c0 -5 17 -10 38 -10 27 0 33 3 22 10 -20 13 -60 13 -60 0z"/>
<path d="M3110 3090 c-12 -8 -10 -10 8 -10 13 0 20 4 17 10 -7 12 -6 12 -25 0z"/>
<path d="M3280 3090 c0 -5 8 -10 18 -10 10 0 24 -9 32 -21 33 -46 49 -59 74
-59 14 0 26 5 26 10 0 6 -10 10 -22 10 -25 1 -58 21 -58 36 0 14 -38 44 -55
44 -8 0 -15 -4 -15 -10z"/>
<path d="M4605 2506 c0 -15 5 -22 13 -18 15 5 12 34 -3 39 -5 2 -10 -8 -10
-21z"/>
<path d="M4392 2470 c-14 -30 -6 -57 25 -88 22 -23 25 -7 3 18 -22 26 -27 66
-7 73 8 3 9 8 2 15 -7 8 -14 3 -23 -18z"/>
<path d="M4626 2455 c4 -8 8 -15 10 -15 2 0 4 7 4 15 0 8 -4 15 -10 15 -5 0
-7 -7 -4 -15z"/>
<path d="M4321 2444 c0 -11 3 -14 6 -6 3 7 2 16 -1 19 -3 4 -6 -2 -5 -13z"/>
<path d="M4425 2447 c-4 -10 -5 -21 -1 -24 10 -10 18 4 13 24 -4 17 -4 17 -12
0z"/>
<path d="M4608 2393 c7 -3 16 -2 19 1 4 3 -2 6 -13 5 -11 0 -14 -3 -6 -6z"/>
<path d="M4570 2364 c-14 -8 -18 -14 -10 -14 8 1 24 7 34 15 24 19 10 18 -24
-1z"/>
</g>
</svg>
